<svg width="54" height="65" viewBox="0 0 54 65" fill="none" xmlns="http://www.w3.org/2000/svg">
<path d="M13.7166 16.2882H15.9303V18.5019H13.7166V16.2882Z" fill="#8C916C"/>
<path d="M20.3582 15.491L18.1445 16.0447V18.744L20.3582 19.2977V15.491Z" fill="#8C916C"/>
<path d="M13.1641 20.7166L13.7139 30.618C13.715 30.6388 13.7128 30.6597 13.7128 30.6795H13.7161V32.435L14.0402 32.1109V32.1104C14.2479 31.9027 14.5297 31.7863 14.823 31.7863C15.1163 31.7863 15.3981 31.9028 15.6058 32.1104L15.9299 32.435V30.6795H15.9332C15.9332 30.6592 15.9304 30.6388 15.9321 30.618L16.482 20.7166H13.1641Z" fill="#8C916C"/>
<path d="M20.5525 21.6292L18.6749 21.1595L18.303 27.8475L21.3462 24.8048L20.5525 21.6292Z" fill="#8C916C"/>
<path d="M22.043 13.1298L21.9238 12.9315L19.1733 12.1812L19.0986 13.5242L21.1965 12.9996H21.197C21.4849 12.9277 21.7898 12.9744 22.043 13.1298Z" fill="#8C916C"/>
<path d="M22.5717 18.5017L24.4301 17.1081L22.5674 14.0045C22.569 14.0276 22.5712 14.0501 22.5712 14.0737L22.5717 18.5017Z" fill="#8C916C"/>
<path d="M8.44884 12.999L10.5467 13.5236L10.472 12.1805L7.7215 12.9309L7.60229 13.1292H7.60284C7.85608 12.9738 8.16101 12.9271 8.44884 12.999Z" fill="#8C916C"/>
<path d="M9.42475 36.2134C9.97572 36.2128 10.5036 35.9937 10.893 35.6042C11.2825 35.2147 11.5017 34.6863 11.5022 34.1354V31.1367L6.29135 25.9258V25.9264C6.01669 25.6512 5.90627 25.2518 6.00076 24.8744L6.92966 21.1594L3.08891 18.2798C2.63517 17.9398 2.51212 17.3114 2.80436 16.8246L4.63573 13.7721L3.41405 14.1055C2.55822 14.3406 1.80347 14.8493 1.26459 15.5547C0.726265 16.26 0.43347 17.1219 0.432373 18.0096V29.5716H2.64609V20.7155H4.86037V36.2137L9.42475 36.2134Z" fill="#8C916C"/>
<path d="M16.3491 35.9842L14.823 34.4578V42.7157L12.6093 42.7162V37.0094C11.7969 37.9125 10.6389 38.4277 9.42444 38.4277H7.2124L9.16582 55.0327L12.6094 55.0322V45.0692H14.8232V55.0322H20.4805L22.4339 38.4272H20.2219C19.4117 38.4261 18.6185 38.1965 17.933 37.7642C17.248 37.3319 16.6992 36.7144 16.3492 35.9839L16.3491 35.9842Z" fill="#8C916C"/>
<path d="M7.07357 14.0734C7.07357 14.0503 7.07631 14.0272 7.07741 14.0042L5.21582 17.1077L7.07362 18.5014L7.07357 14.0734Z" fill="#8C916C"/>
<path d="M8.2998 24.8045L11.3431 27.8472L10.9712 21.1592L9.09356 21.6288L8.2998 24.8045Z" fill="#8C916C"/>
<path d="M26.2323 14.1057L25.0112 13.7728L26.8426 16.8248H26.842C27.1342 17.3115 27.0112 17.9399 26.5575 18.28L22.7177 21.16L23.6466 24.875H23.6461C23.7405 25.2524 23.6301 25.6518 23.3555 25.9264L18.144 31.1373V34.136V34.1354C18.1446 34.6864 18.3638 35.2148 18.7532 35.6043C19.1427 35.9937 19.6706 36.2129 20.2215 36.2134H24.7858V20.7152H26.9995V29.5713H29.2132L29.2137 18.0092C29.2126 17.1216 28.9199 16.2597 28.3815 15.5544C27.8427 14.849 27.0879 14.3404 26.2321 14.1052L26.2323 14.1057Z" fill="#8C916C"/>
<path d="M11.5018 16.0449L9.28809 15.4912V19.2979L11.5018 18.7442V16.0449Z" fill="#8C916C"/>
<path d="M13.7166 7.24185V11.8594H12.6729L12.7959 14.0731H16.8516L16.9746 11.8594H15.9304V6.32455C15.9304 6.03068 15.8139 5.74943 15.6063 5.54178C15.3986 5.33413 15.1168 5.21713 14.8235 5.21713C14.3758 5.21713 13.972 4.94741 13.8007 4.53378C13.6293 4.12014 13.7243 3.64444 14.0407 3.32748C14.3571 3.01108 14.8334 2.91604 15.247 3.08744C15.6606 3.25883 15.9304 3.66256 15.9304 4.11026H18.1446C18.1446 3.29452 17.8442 2.50742 17.3009 1.89865C16.7576 1.29001 16.0094 0.902743 15.1987 0.810999C14.3884 0.718714 13.5722 0.928003 12.9058 1.39877C12.24 1.87009 11.7704 2.56991 11.5874 3.36471C11.404 4.15956 11.5199 4.99399 11.9126 5.70921C12.3054 6.42386 12.9476 6.96999 13.7166 7.24185Z" fill="#8C916C"/>
<path d="M36.9634 11.86H39.1771V14.0737H36.9634V11.86Z" fill="#8C916C"/>
<path d="M44.7117 16.9366L47.2501 14.3982V14.3987C47.4578 14.1911 47.7396 14.0741 48.0329 14.0741V11.6175L45.8192 11.0638V7.24271C46.5882 6.9708 47.2303 6.42478 47.6231 5.71018C48.0153 4.99498 48.1312 4.16049 47.9483 3.36568C47.7648 2.57083 47.2957 1.87098 46.6294 1.39974C45.9636 0.928974 45.1473 0.719695 44.3365 0.811973C43.5263 0.903709 42.7781 1.29097 42.2349 1.89962C41.6916 2.50826 41.3911 3.29544 41.3911 4.11123H43.6048C43.6048 3.66354 43.8746 3.25979 44.2882 3.08841C44.7018 2.91703 45.1781 3.01206 45.4945 3.32846C45.8114 3.64541 45.9059 4.12112 45.7345 4.53475C45.5631 4.94839 45.1599 5.21811 44.7117 5.21811C44.1003 5.21811 43.6048 5.71413 43.6048 6.32553V11.0639L41.3911 11.6176V14.0742C41.6844 14.0742 41.9662 14.1912 42.1739 14.3988L44.7117 16.9366Z" fill="#8C916C"/>
<path d="M50.2468 11.86H52.4605V14.0737H50.2468V11.86Z" fill="#8C916C"/>
<path d="M40.2834 26.2501C41.1013 26.2496 41.8902 26.5517 42.4977 27.0983C43.1058 26.5522 43.894 26.2501 44.7114 26.2501C45.5287 26.2501 46.3176 26.5522 46.9257 27.0983C47.3948 26.6775 47.9738 26.3984 48.5956 26.2952C49.2174 26.1913 49.8563 26.2677 50.4364 26.5138L53.2253 16.2871H48.4913L45.4947 19.2841L45.4941 19.2836C45.287 19.4912 45.0052 19.6082 44.7114 19.6082C44.418 19.6082 44.1362 19.4912 43.9286 19.2836L40.932 16.287H36.198L38.9869 26.5137C39.3967 26.339 39.8378 26.2494 40.2833 26.25L40.2834 26.2501Z" fill="#8C916C"/>
<path d="M41.3915 29.5717C41.3915 30.1831 40.8955 30.6785 40.2841 30.6785C39.6727 30.6785 39.1772 30.1831 39.1772 29.5717C39.1772 28.9603 39.6727 28.4642 40.2841 28.4642C40.8955 28.4642 41.3915 28.9603 41.3915 29.5717Z" fill="#8C916C"/>
<path d="M50.4254 32.6345C49.8459 32.8778 49.2098 32.952 48.5901 32.8476C47.9705 32.7432 47.3932 32.4647 46.9257 32.045C46.3176 32.5911 45.5288 32.8932 44.7114 32.8932C43.894 32.8932 43.1058 32.5911 42.4977 32.045C42.0302 32.4647 41.4529 32.7432 40.8333 32.8476C40.2136 32.952 39.5775 32.8778 38.998 32.6345L35.9641 64.9965H53.4593L50.4254 32.6345Z" fill="#8C916C"/>
<path d="M50.2468 29.5717C50.2468 30.1831 49.7507 30.6785 49.1393 30.6785C48.5279 30.6785 48.0325 30.1831 48.0325 29.5717C48.0325 28.9603 48.5279 28.4642 49.1393 28.4642C49.7507 28.4642 50.2468 28.9603 50.2468 29.5717Z" fill="#8C916C"/>
<path d="M45.8185 29.5717C45.8185 30.1831 45.3225 30.6785 44.7111 30.6785C44.0997 30.6785 43.6042 30.1831 43.6042 29.5717C43.6042 28.9603 44.0997 28.4642 44.7111 28.4642C45.3225 28.4642 45.8185 28.9603 45.8185 29.5717Z" fill="#8C916C"/>
</svg>
