<svg width="72" height="72" viewBox="0 0 72 72" fill="none" xmlns="http://www.w3.org/2000/svg">
<path d="M69.0266 71.9991H14.5874C13.7985 71.9991 13.0421 71.686 12.4844 71.1283C11.9273 70.5706 11.6136 69.8142 11.6136 69.0252V60.3855H2.97379C2.18719 60.3855 1.43259 60.0741 0.874892 59.5187C0.317771 58.9633 0.00290005 58.2104 0 57.4232V2.97388C0 2.18496 0.313131 1.42853 0.870833 0.87083C1.42853 0.31313 2.18491 0 2.97389 0H57.413H57.4124C58.2014 0 58.9578 0.31313 59.5155 0.87083C60.0732 1.42853 60.3863 2.1849 60.3863 2.97388V11.6136H69.0261C69.8162 11.6171 70.5725 11.9325 71.1297 12.492C71.6874 13.052 72 13.8096 72 14.5991V69.0261C72 69.815 71.6869 70.5715 71.1292 71.1292C70.5715 71.6869 69.8151 72 69.0261 72L69.0266 71.9991ZM13.3709 60.3855V69.0253C13.3709 69.3361 13.4941 69.6341 13.7137 69.8531C13.9333 70.0727 14.2313 70.1965 14.5415 70.1965H68.9806C69.2908 70.1965 69.5889 70.0727 69.8085 69.8531C70.0281 69.6341 70.1512 69.3361 70.1512 69.0253V14.5982C70.1675 14.2776 70.0513 13.9644 69.83 13.732C69.6086 13.4997 69.3013 13.3684 68.9806 13.369H60.3874V16.2842H65.5037C65.9876 16.2842 66.4524 16.4765 66.7951 16.8192C67.1373 17.1614 67.3296 17.6261 67.3296 18.1106V65.5018C67.3296 66.5103 66.5122 67.3276 65.5038 67.3276H18.1125C17.104 67.3276 16.2861 66.5102 16.2861 65.5018V60.3855L13.3709 60.3855ZM18.0538 60.3855V65.5018L65.515 65.5721L65.5853 18.1111L65.515 18.0408H60.3871V57.4233C60.3842 58.2105 60.0693 58.9633 59.5122 59.5188C58.9545 60.0742 58.1999 60.3856 57.4133 60.3856L18.0538 60.3855ZM12.5048 58.6293H57.4139C57.7247 58.6293 58.0221 58.5062 58.2417 58.2866C58.4613 58.067 58.5851 57.7689 58.5851 57.4587V2.97366C58.5851 2.66286 58.4613 2.36542 58.2417 2.14582C58.0221 1.92622 57.7247 1.80307 57.4139 1.80307H2.97475C2.32816 1.80307 1.80416 2.32707 1.80416 2.97366V57.423C1.80416 57.7338 1.92732 58.0319 2.14691 58.2509C2.36651 58.4705 2.66396 58.5942 2.97475 58.5942L12.5048 58.6293ZM53.9026 55.7141H6.49943C5.49033 55.7141 4.67299 54.8967 4.67299 53.8877V6.49655C4.67299 5.48745 5.49037 4.67012 6.49943 4.67012H53.8907C54.3752 4.67012 54.8399 4.86241 55.1821 5.20517C55.5249 5.54734 55.7172 6.01209 55.7172 6.49659V53.8877C55.7172 54.3722 55.5249 54.837 55.1821 55.1791C54.8399 55.5219 54.3752 55.7142 53.8907 55.7142L53.9026 55.7141ZM47.557 53.9463H53.9026C53.8323 53.876 54.1018 6.40345 53.9026 6.41386L6.49943 6.41444L6.42913 53.8874H12.8567H12.8561C12.6266 51.0535 13.2941 48.2198 14.7645 45.7861V24.5132C14.7773 21.9014 15.7486 19.3854 17.4948 17.4426C19.2411 15.5 21.6398 14.2667 24.2354 13.9767C24.354 13.4086 24.6409 12.8892 25.0586 12.4865C25.4763 12.0834 26.005 11.8156 26.5772 11.7174C27.0135 10.7844 27.7891 10.0541 28.7459 9.67425C29.7027 9.2949 30.7688 9.2949 31.7255 9.67425C32.6823 10.0542 33.4578 10.7844 33.8941 11.7174C34.4681 11.8109 34.9997 12.077 35.4179 12.4807C35.8368 12.8845 36.122 13.4067 36.2359 13.9767C38.8339 14.2637 41.2354 15.4959 42.9841 17.439C44.7321 19.3816 45.7058 21.8995 45.7186 24.5131V45.786C47.1704 48.2462 47.8095 51.1015 47.545 53.9458L47.557 53.9463ZM41.797 53.9463H45.8009C46.1541 50.8028 45.1654 47.6559 43.0769 45.2799C40.9885 42.9038 37.9943 41.5195 34.8311 41.4666C34.2101 41.4666 33.6146 41.2197 33.1754 40.7805C32.7368 40.3413 32.4899 39.7458 32.4899 39.1248V36.1516C31.0137 36.5786 29.4469 36.5786 27.9707 36.1516V39.1602C27.9707 39.7812 27.7238 40.3767 27.2852 40.8159C26.846 41.2551 26.2506 41.5014 25.6295 41.5014C24.689 41.5037 23.7525 41.6257 22.8428 41.8645C20.2681 42.579 18.0309 44.1848 16.5298 46.3952C15.0292 48.6063 14.3617 51.278 14.6481 53.9346H18.6404V51.7218C18.6799 49.9255 19.4909 48.2333 20.866 47.0767C22.2411 45.9201 24.0479 45.4106 25.8243 45.6795C27.6014 45.9479 29.1764 46.968 30.1482 48.479C31.0981 46.9204 32.6823 45.8544 34.4837 45.5616C36.2858 45.2682 38.1256 45.7777 39.5205 46.9552C40.9153 48.1328 41.7257 49.8617 41.7385 51.6869L41.797 53.9463ZM20.3724 53.9463H40.0407V51.7219C40.0407 50.1243 39.1884 48.6481 37.8046 47.8487C36.4208 47.05 34.7163 47.05 33.3326 47.8487C31.9488 48.6481 31.0966 50.1243 31.0966 51.7219C31.0966 52.2133 30.6981 52.6119 30.2066 52.6119C29.7151 52.6119 29.3172 52.2133 29.3172 51.7219C29.3172 50.1243 28.4644 48.6481 27.0812 47.8487C25.6974 47.05 23.9922 47.05 22.6085 47.8487C21.2247 48.6481 20.3725 50.1243 20.3725 51.7219L20.3724 53.9463ZM34.4677 39.6517C34.7953 39.8272 35.2757 39.6517 35.6382 39.7691H35.6388C36.1936 39.8039 36.7455 39.8783 37.2893 39.9916C39.817 40.4842 42.1331 41.7385 43.9278 43.5853V24.5149C43.9022 21.9279 42.7508 19.481 40.7738 17.8121C38.7969 16.1436 36.1915 15.4192 33.637 15.8282C34.9238 16.4422 36.0206 17.3931 36.8102 18.5807C37.5997 19.7682 38.0528 21.1473 38.1208 22.5717C41.7498 22.9697 41.3636 28.4252 38.1208 29.163C37.9308 31.74 36.4924 34.0615 34.2692 35.3796V39.161C34.2558 39.3341 34.3255 39.5032 34.4568 39.6176L34.4677 39.6517ZM25.1017 15.7346H25.1023C22.8191 15.8246 20.658 16.7913 19.0693 18.4325C17.4797 20.0742 16.584 22.265 16.5678 24.5504V43.539C18.7834 41.268 21.77 39.9105 24.9385 39.7338C25.4068 39.7338 26.2265 39.8274 26.2265 39.1604L26.2259 35.3669C24.0061 34.0534 22.5718 31.7349 22.3859 29.1624C19.1315 28.4949 18.7331 22.969 22.3859 22.5712C22.4655 21.1496 22.9233 19.7751 23.7111 18.5899C24.4994 17.4042 25.5898 16.4509 26.8702 15.8276C26.2724 15.7143 25.663 15.6708 25.0553 15.6986L25.1017 15.7346ZM29.5273 34.7128C31.2666 34.9091 33.0071 34.3561 34.3137 33.1924C35.6208 32.0282 36.3708 30.3633 36.376 28.6129C36.3702 28.5507 36.3702 28.488 36.376 28.4258V24.293C34.6889 24.056 33.1176 23.299 31.8807 22.1274C30.8739 23.0051 28.6844 24.1996 24.1188 24.3286V28.6019V28.6013C24.1287 30.0909 24.6771 31.5263 25.6624 32.6435C26.6476 33.7601 28.0041 34.4827 29.4809 34.6774L29.5273 34.7128ZM22.304 24.3517C21.6957 24.5626 21.3466 25.2005 21.4964 25.8267C21.4982 26.4141 21.8038 26.959 22.304 27.2669V24.3517ZM38.0847 24.3517V27.2669H38.0853C38.5854 26.959 38.891 26.4141 38.8928 25.8268C39.0485 25.2 38.6976 24.558 38.0853 24.3518L38.0847 24.3517ZM25.4644 19.0252C24.622 20.011 24.1207 21.2432 24.0365 22.5369C29.7616 22.3615 30.9671 20.3944 30.9787 20.3828C31.1245 20.1139 31.397 19.9367 31.702 19.9129C32.0076 19.8896 32.3039 20.0221 32.4892 20.2661C33.4773 21.4128 34.8211 22.196 36.3059 22.4905C36.177 20.8813 35.4212 19.3871 34.2018 18.3293C32.9819 17.272 31.3959 16.7357 29.785 16.8357C28.1089 16.9542 26.5515 17.7437 25.4645 19.0253L25.4644 19.0252ZM26.0616 13.9675C27.4071 14.0674 28.7182 14.4421 29.9132 15.0678C31.3649 14.8453 32.7232 13.8972 34.2447 13.9559H34.2452C34.0367 13.6178 33.6579 13.4237 33.2617 13.4522C32.8318 13.49 32.4368 13.2134 32.3252 12.7969C32.1533 12.1503 31.7036 11.6135 31.0977 11.3306C30.4918 11.0477 29.7918 11.0477 29.1859 11.3306C28.58 11.6135 28.1303 12.1503 27.9584 12.7969C27.8213 13.2111 27.4071 13.4673 26.9748 13.4057C26.6071 13.4267 26.2777 13.6399 26.1087 13.9675H26.0616Z" fill="#8C916C"/>
</svg>
