<svg width="66" height="67" viewBox="0 0 66 67" fill="none" xmlns="http://www.w3.org/2000/svg">
<path d="M11.8133 66.9999C11.6398 66.9983 11.4684 66.9647 11.3061 66.902L0.837036 62.6627C0.312726 62.442 -0.0209292 61.9159 0.00102108 61.3426C0.0224435 60.7694 0.394658 60.2696 0.934502 60.0906L5.25161 58.7175V58.717C5.54617 58.6272 5.78449 58.4066 5.89911 58.1178L10.5617 46.3803C10.7149 45.9385 10.5714 45.4469 10.2056 45.1597C7.72962 43.3534 5.92328 40.7635 5.07228 37.8016C4.22182 34.8396 4.37606 31.6755 5.51037 28.8119L9.16938 19.5809C9.55766 18.6145 10.3096 17.8422 11.2602 17.4339C12.2108 17.0251 13.283 17.0137 14.2422 17.4015L32.9897 25.0305L51.7578 17.3576C52.717 16.9698 53.7891 16.9817 54.7398 17.39C55.6904 17.7983 56.4423 18.5706 56.8306 19.5376L60.4896 28.7685C61.6239 31.6316 61.7782 34.7957 60.9277 37.7578C60.0767 40.7198 58.2702 43.3097 55.7944 45.1158C55.4286 45.4035 55.2851 45.8946 55.4383 46.3364L60.1009 58.1178C60.2155 58.4066 60.4538 58.6272 60.7484 58.717L65.0655 60.0901V60.0906C65.6053 60.2696 65.9776 60.7693 65.999 61.3426C66.0209 61.9158 65.6873 62.442 65.163 62.6627L54.6939 66.902C54.1642 67.1054 53.5649 66.9556 53.19 66.5262C52.8156 66.0968 52.7439 65.4781 53.0101 64.973L55.1683 60.9407V60.9402C55.292 60.6595 55.292 60.3388 55.1683 60.0576L50.6246 48.3093C50.4575 47.868 50.0076 47.6047 49.5454 47.6771C46.5201 48.0968 43.4422 47.4797 40.8051 45.925C38.1675 44.3697 36.1222 41.9668 34.997 39.1001L33.0112 34.1306L31.0361 39.1001C29.9034 41.9603 27.8565 44.3567 25.2199 45.9066C22.5838 47.457 19.5098 48.0725 16.4871 47.6555C16.0265 47.5912 15.582 47.8518 15.4079 48.2877L10.7346 60.0578C10.6318 60.3482 10.6554 60.6689 10.7994 60.9403L12.9577 64.9725V64.9731C13.1821 65.3906 13.1773 65.8952 12.9443 66.3078C12.7113 66.7204 12.284 66.9822 11.8137 67L11.8133 66.9999ZM49.6853 46.031C50.2059 46.0256 50.7163 46.1771 51.1507 46.4664C51.5856 46.7557 51.9246 47.1694 52.1244 47.6551L56.7547 59.4472C57.045 60.1935 56.9936 61.0312 56.6144 61.7359L54.801 65.0926L63.8883 61.4201L60.2621 60.2649V60.2644C59.5043 60.0297 58.8932 59.4607 58.6002 58.7166L53.9376 46.9899C53.7223 46.4377 53.6945 45.8288 53.8584 45.2587C54.0222 44.6887 54.3693 44.1901 54.8443 43.8402C57.0304 42.2444 58.6259 39.9567 59.3768 37.3404C60.1277 34.7241 59.9911 31.9291 58.9886 29.3999L55.3295 20.1581H55.3301C55.103 19.5919 54.6654 19.1376 54.1106 18.8943C53.5504 18.6601 52.9217 18.6601 52.362 18.8943L33.8201 26.3595V31.8086L36.4861 38.522C37.5176 41.0995 39.3852 43.2459 41.7839 44.6104C44.1821 45.9749 46.9681 46.4757 49.6856 46.0311L49.6853 46.031ZM2.13242 61.4303L11.2198 65.0925L9.37422 61.7358C8.99504 61.0312 8.94363 60.1934 9.2339 59.4472L13.8965 47.655C14.1134 47.1023 14.5081 46.6399 15.0169 46.3414C15.5262 46.0429 16.1196 45.9255 16.7023 46.0093C19.371 46.3787 22.0853 45.8347 24.4116 44.4637C26.7376 43.0928 28.5413 40.974 29.5353 38.4457L32.2013 31.7322V26.2832L13.6581 18.8721C13.0984 18.6384 12.4697 18.6384 11.91 18.8721C11.3552 19.116 10.9171 19.5702 10.69 20.1365L7.04238 29.3998C6.03498 31.9275 5.89467 34.7223 6.64392 37.3399C7.39317 39.9568 8.98867 42.2455 11.1759 43.8403C11.6509 44.1902 11.998 44.6888 12.1618 45.2588C12.3263 45.8288 12.2984 46.4377 12.0826 46.9899L7.41997 58.728C7.12755 59.4716 6.51594 60.041 5.75814 60.2752L2.13242 61.4303ZM18.4189 44.3849C11.6629 44.3849 6.29871 37.7807 8.38145 31.1104C8.48588 30.7665 8.80186 30.5318 9.15855 30.5328H29.5033C29.7722 30.5318 30.0234 30.667 30.1728 30.8925C30.3233 31.1174 30.3554 31.4024 30.259 31.6555L27.7333 38.0311C26.9846 39.9071 25.6981 41.5138 24.0385 42.6463C22.3788 43.7782 20.4218 44.3839 18.4194 44.385L18.4189 44.3849ZM9.78456 32.1677C7.62628 42.3689 22.1421 47.1198 26.2329 37.4205L28.3156 32.1677H9.78456ZM47.6032 44.3849C45.6002 44.3838 43.6432 43.7781 41.9836 42.6462C40.3243 41.5138 39.0375 39.9071 38.2888 38.031L35.763 31.6555C35.6666 31.4024 35.6988 31.1174 35.8498 30.8924C35.9987 30.6669 36.2499 30.5317 36.5187 30.5328H56.8635C57.2207 30.5317 57.5361 30.7664 57.6406 31.1103C59.7239 37.7806 54.3704 44.3849 47.6037 44.3849L47.6032 44.3849ZM37.7168 32.1677L39.7995 37.4205C43.8901 47.1202 58.3523 42.3574 56.2478 32.1677H37.7168ZM33.0114 19.6347C32.7961 19.6358 32.5899 19.5493 32.4394 19.3951L24.8843 11.7661C22.5097 9.35747 21.528 6.55659 22.1861 4.07164C23.5673 -0.876104 29.3958 -1.1487 33.0114 2.3606C36.6269 -1.1487 42.4549 -0.876105 43.8796 4.06084C44.5378 6.54579 43.5556 9.34667 41.1814 11.7553L33.6263 19.3843V19.3838C33.4678 19.5547 33.2427 19.6466 33.0114 19.6347ZM27.507 1.60919C22.6392 1.88176 22.5423 7.45087 25.9961 10.6005L33.0114 17.6844L40.0374 10.6005C46.1138 4.59545 39.5302 -2.06348 33.562 4.06174L33.5615 4.0612C33.2412 4.36838 32.7383 4.36838 32.4175 4.0612C31.1632 2.62428 29.399 1.74334 27.507 1.60919Z" fill="#8C916C"/>
</svg>
