<svg width="72" height="72" viewBox="0 0 72 72" fill="none" xmlns="http://www.w3.org/2000/svg">
<path d="M17.1816 21.6085C17.1816 22.2199 16.6856 22.7154 16.0742 22.7154C15.4628 22.7154 14.9673 22.2199 14.9673 21.6085C14.9673 20.9971 15.4628 20.5011 16.0742 20.5011C16.6856 20.5011 17.1816 20.9971 17.1816 21.6085Z" fill="#8C916C"/>
<path d="M30.1498 33.0329L30.7645 33.2438L31.4446 30.0913H31.4451C31.6127 29.3135 31.6973 28.5208 31.6973 27.7249V27.2986C31.1106 26.5757 30.7162 25.7154 30.5514 24.7987C28.976 25.147 27.3274 24.7894 26.0382 23.8198C25.5295 24.2016 24.9588 24.4933 24.3518 24.6817C25.0049 25.9946 25.1093 27.514 24.6408 28.9042C26.0014 30.822 27.9278 32.2655 30.1498 33.0329Z" fill="#8C916C"/>
<path d="M21.5226 13.9894C22.3285 13.8108 23.1645 13.8158 23.9682 14.0042C23.7293 12.9836 23.7864 11.9162 24.1325 10.9275C24.4785 9.93814 25.0987 9.06742 25.9211 8.41815C25.5223 7.46839 24.6917 6.62139 23.5794 6.04834C22.3511 5.41553 20.9404 5.17163 19.7672 5.04639C19.1064 6.7734 18.9421 8.65046 19.2931 10.4659C20.4665 11.3053 21.2662 12.5693 21.5227 13.9893L21.5226 13.9894Z" fill="#8C916C"/>
<path d="M13.2314 32.4464C12.364 34.1196 12.0388 36.0208 12.3003 37.8873L12.6541 37.7489C15.0392 36.8118 16.9212 34.9166 17.8424 32.5254L17.8666 32.4628C16.9833 32.2084 16.1768 31.7388 15.5198 31.0961C14.8777 31.7245 14.0922 32.1882 13.2314 32.4464Z" fill="#8C916C"/>
<path d="M27.163 16.9046C26.3308 17.6407 25.9221 18.7442 26.0732 19.845C26.2248 20.9459 26.9169 21.8979 27.9172 22.3818C28.9174 22.8657 30.0936 22.8168 31.0504 22.2527C31.4168 22.0352 31.875 22.0467 32.2293 22.2824C32.5836 22.518 32.7714 22.936 32.7127 23.3579C32.6907 23.5117 32.6797 23.6677 32.6792 23.8232C32.6792 25.0097 33.312 26.1061 34.3398 26.6994C35.367 27.2926 36.6332 27.2926 37.6604 26.6994C38.6881 26.1061 39.321 25.0096 39.321 23.8232C39.321 23.6672 39.3095 23.5117 39.2881 23.3574C39.2287 22.9355 39.4166 22.518 39.7715 22.2824C40.1258 22.0467 40.5839 22.0352 40.9497 22.2521C41.9066 22.8196 43.0844 22.8696 44.0864 22.3862C45.0883 21.9022 45.781 20.9491 45.9321 19.8466C46.0831 18.7441 45.6722 17.6395 44.8373 16.9045C44.5989 16.6941 44.4626 16.392 44.4626 16.0739C44.4626 15.7564 44.5989 15.4537 44.8373 15.2439C45.6695 14.5078 46.0782 13.4042 45.9266 12.3034C45.775 11.2026 45.0828 10.2506 44.0831 9.76726C43.0828 9.28331 41.9067 9.33164 40.9499 9.8958C40.584 10.1133 40.1259 10.1018 39.7716 9.86613C39.4167 9.63047 39.2289 9.21245 39.2882 8.79113C39.3096 8.63676 39.3211 8.48077 39.3211 8.32531C39.3211 7.13878 38.6883 6.0424 37.6605 5.4491C36.6333 4.85583 35.367 4.85583 34.3399 5.4491C33.3122 6.04237 32.6793 7.13885 32.6793 8.32531C32.6793 8.48077 32.6908 8.63621 32.7128 8.79058C32.7716 9.2119 32.5837 9.63049 32.2294 9.86613C31.8751 10.1018 31.417 10.1133 31.0506 9.8958C30.0937 9.33165 28.9181 9.2833 27.9179 9.76726C26.9175 10.2507 26.2254 11.2026 26.0738 12.3034C25.9222 13.4042 26.3315 14.5079 27.1631 15.2439C27.4015 15.4537 27.5383 15.7564 27.5383 16.0739C27.5383 16.392 27.4015 16.6941 27.1631 16.9045L27.163 16.9046ZM36.0004 12.7533C36.881 12.7533 37.7259 13.1032 38.3487 13.7256C38.9711 14.3485 39.321 15.1935 39.321 16.0739C39.321 16.955 38.9711 17.7998 38.3487 18.4222C37.7258 19.0451 36.8809 19.3951 36.0004 19.3951C35.1193 19.3951 34.2745 19.0451 33.6521 18.4222C33.0292 17.7998 32.6793 16.9549 32.6793 16.0739C32.6804 15.1934 33.0303 14.3496 33.6532 13.7267C34.2756 13.1044 35.12 12.7539 36.0004 12.7533Z" fill="#8C916C"/>
<path d="M37.1066 16.0734C37.1066 16.6848 36.6112 17.1808 35.9998 17.1808C35.3884 17.1808 34.8923 16.6848 34.8923 16.0734C34.8923 15.462 35.3884 14.9666 35.9998 14.9666C36.6112 14.9666 37.1066 15.462 37.1066 16.0734Z" fill="#8C916C"/>
<path d="M40.7756 26.6161C40.7927 26.5886 40.8069 26.5623 40.819 26.5381C40.8047 26.5645 40.7905 26.5903 40.7756 26.6161Z" fill="#8C916C"/>
<path d="M47.0685 16.0734C47.1564 16.1904 47.2393 16.3107 47.3173 16.4343H47.3179C48.3264 16.0514 49.4244 15.9712 50.4776 16.2036C50.7033 14.9578 51.3482 13.8268 52.3057 12.9984C53.2626 12.17 54.475 11.6937 55.74 11.6498C56.0685 9.95793 56.1652 8.22979 56.0273 6.51205C53.5999 6.45492 51.1845 6.86745 48.9142 7.72769C47.9595 8.09133 47.2124 8.49453 46.6555 8.94717C47.5564 9.8942 48.092 11.1301 48.1678 12.4348C48.2436 13.7394 47.8541 15.0286 47.0686 16.0735L47.0685 16.0734Z" fill="#8C916C"/>
<path d="M40.8628 30.4158L41.2067 31.3986L42.4333 31.1437V31.1431C44.0214 30.8097 45.3645 29.7567 46.0676 28.2938C46.189 27.6714 46.417 27.0743 46.7411 26.5288C45.8671 26.0778 45.1299 25.4016 44.6058 24.5693C43.5984 24.9522 42.5008 25.033 41.4489 24.8C41.3435 25.3867 41.1435 25.9525 40.8568 26.4743C40.8282 26.6029 40.7579 26.9742 40.6184 27.9811V27.9817C40.5063 28.8007 40.5898 29.6352 40.8628 30.4158Z" fill="#8C916C"/>
<path d="M37.6819 55.9266H34.4124L33.0561 58.1859H33.0567C32.0459 59.8657 31.3835 61.7318 31.1087 63.6725L30.8121 65.7468C30.767 66.061 30.861 66.3796 31.0692 66.6191C31.2774 66.8591 31.5789 66.9965 31.8964 66.9965H40.4394C41.0442 66.9959 41.5342 66.5059 41.5347 65.9017C41.5303 62.5629 40.3944 59.3246 38.3119 56.7155L37.6819 55.9266Z" fill="#8C916C"/>
<path d="M46.395 31.5029C45.8962 31.9605 45.3376 32.3483 44.7343 32.6553L45.9406 32.8965L45.171 36.7455C44.9019 38.0919 44.5789 39.4448 44.2114 40.7677L42.0784 40.175C42.4316 38.9044 42.7414 37.6048 43.0001 36.3116L43.6406 33.1086C43.3918 33.1893 43.1391 33.2569 42.8831 33.3107L40.7073 33.7634H40.7067C40.1634 33.8765 39.6202 33.5695 39.4367 33.0454L38.7726 31.1475C38.5133 30.4016 38.3738 29.6194 38.36 28.8295C36.9406 29.4996 35.3031 29.5348 33.8562 28.9261C33.8073 29.4749 33.7249 30.0204 33.609 30.5592L32.6659 34.9301C32.5994 35.2394 32.4033 35.5053 32.1281 35.6607C31.8523 35.8162 31.5238 35.8464 31.2245 35.7437L29.4304 35.1273C27.0771 34.3149 24.9946 32.8669 23.4137 30.9443C22.9347 31.4508 22.3651 31.8633 21.7334 32.1594L22.1245 34.31C23.1429 39.9558 25.8231 45.17 29.822 49.2837H31.4744C28.5938 45.4324 26.7277 40.9182 26.0482 36.1567L28.24 35.8435C28.9338 40.7066 30.9674 45.2802 34.1128 49.0536L34.304 49.2837H38.6299C39.7252 47.0294 40.6623 44.7013 41.4341 42.3173L43.5406 42.9985L43.5412 42.9979C42.8468 45.1408 42.0251 47.2397 41.0791 49.2837H42.1827L43.4807 47.9857H43.4813C46.6563 44.8029 49.0513 40.9276 50.4779 36.6642L51.0712 34.8745C50.0577 34.7949 49.0854 34.4383 48.2604 33.844C47.4359 33.2491 46.7906 32.4394 46.395 31.5029Z" fill="#8C916C"/>
<path d="M56.3413 30.9657C56.8159 31.8259 57.647 32.4318 58.6111 32.6208C59.5757 32.8093 60.5738 32.5615 61.338 31.9435C62.1021 31.3256 62.553 30.401 62.5695 29.4183C62.5866 28.4356 62.1674 27.4963 61.4247 26.8525C61.0622 26.5372 60.9446 26.0236 61.1342 25.5814C61.3237 25.1397 61.7763 24.8706 62.2553 24.9156C62.3663 24.926 62.4685 24.931 62.5695 24.931L62.569 24.9304C63.605 24.931 64.5816 24.4476 65.2095 23.6241C65.8379 22.8007 66.0461 21.7312 65.7726 20.7321C65.499 19.7334 64.775 18.9193 63.8142 18.531C62.854 18.1426 61.768 18.2245 60.8764 18.7524C60.5106 18.9699 60.0524 18.9584 59.6981 18.7227C59.3438 18.487 59.1559 18.069 59.2147 17.6477C59.2362 17.4933 59.2471 17.3373 59.2471 17.1819C59.2471 15.9953 58.6138 14.899 57.5865 14.3057C56.5587 13.7124 55.293 13.7124 54.2654 14.3057C53.2376 14.8989 52.6047 15.9954 52.6047 17.1819C52.6053 17.3373 52.6163 17.4928 52.6382 17.6471C52.697 18.0685 52.5091 18.4865 52.1548 18.7227C51.8005 18.9584 51.3424 18.9699 50.9765 18.7524C50.1064 18.2371 49.0496 18.1459 48.1041 18.5046C48.398 20.2998 47.7883 22.1246 46.4749 23.3826C46.9885 24.2006 47.8339 24.7526 48.7891 24.8938C49.2187 24.9581 49.5708 25.2668 49.6906 25.6837C49.8103 26.1012 49.6746 26.5494 49.3445 26.8312C48.5941 27.4695 48.1657 28.4083 48.175 29.3938C48.1849 30.3788 48.6315 31.3093 49.3945 31.9328C50.1575 32.5563 51.1578 32.809 52.1257 32.6222C53.0931 32.4354 53.9274 31.8284 54.4037 30.9661C54.5987 30.614 54.9695 30.3953 55.3721 30.3953C55.7742 30.3953 56.145 30.614 56.34 30.9661L56.3413 30.9657ZM52.6049 23.8235C52.6049 22.9429 52.9548 22.098 53.5777 21.4752C54.2006 20.8523 55.045 20.5023 55.926 20.5023C56.8066 20.5023 57.6515 20.8523 58.2743 21.4752C58.8972 22.0981 59.2471 22.943 59.2471 23.8235C59.2471 24.7039 58.8972 25.549 58.2743 26.1718C57.6514 26.7947 56.8065 27.1446 55.926 27.1446C55.0455 27.1435 54.2011 26.7931 53.5788 26.1707C52.9564 25.5483 52.606 24.7039 52.6049 23.8235Z" fill="#8C916C"/>
<path d="M42.1832 55.9266H40.4951C42.2491 58.3381 43.3373 61.1681 43.652 64.1328C44.3831 63.834 44.8599 63.1204 44.8561 62.3306C44.8622 59.9399 43.9124 57.6465 42.2171 55.9607L42.1832 55.9266Z" fill="#8C916C"/>
<path d="M63.239 33.1861C62.2167 34.2546 60.8094 34.8693 59.3312 34.8923C57.8529 34.9154 56.4276 34.3458 55.3723 33.3097C55.3674 33.3147 55.3619 33.3191 55.3569 33.3235L55.9831 34.5171L55.9837 34.5177C57.1905 36.8144 59.44 38.3794 62.013 38.7122L65.677 39.1841L65.4243 37.5471H65.4248C65.1732 35.8997 64.4085 34.3738 63.239 33.1861Z" fill="#8C916C"/>
<path d="M57.0331 23.8233C57.0331 24.4347 56.5376 24.9302 55.9262 24.9302C55.3148 24.9302 54.8193 24.4347 54.8193 23.8233C54.8193 23.2119 55.3148 22.7164 55.9262 22.7164C56.5376 22.7164 57.0331 23.2119 57.0331 23.8233Z" fill="#8C916C"/>
<path d="M42.6417 53.7118C43.2531 53.7118 43.7486 53.2163 43.7486 52.6049C43.7486 51.9935 43.2531 51.498 42.6417 51.498H29.3576C28.7462 51.498 28.2507 51.9935 28.2507 52.6049C28.2507 53.2163 28.7462 53.7118 29.3576 53.7118H42.6417Z" fill="#8C916C"/>
<path d="M22.7165 27.1435C22.7159 26.1816 22.299 25.2676 21.5728 24.6376C21.2103 24.3217 21.0927 23.8081 21.2822 23.3664C21.4712 22.9242 21.9244 22.6551 22.4028 22.7001C22.5138 22.7105 22.616 22.7155 22.717 22.7155C23.3746 22.7149 24.0173 22.5194 24.5639 22.1535C23.5779 20.4462 23.5773 18.3423 24.5628 16.6346C24.042 16.2857 23.4339 16.0918 22.8078 16.0748C22.1816 16.0578 21.5636 16.2182 21.0246 16.5373C20.6588 16.7549 20.2007 16.7433 19.8464 16.5077C19.4915 16.272 19.3036 15.854 19.363 15.4327C19.3844 15.2783 19.3954 15.1223 19.3954 14.9663C19.3954 13.7798 18.7626 12.6834 17.7347 12.0901C16.7075 11.4968 15.4413 11.4968 14.4136 12.0901C13.3864 12.6834 12.7535 13.7798 12.7535 14.9663C12.7535 15.1223 12.7645 15.2778 12.7865 15.4321C12.8458 15.8534 12.6579 16.2715 12.3036 16.5071C11.9493 16.7428 11.4906 16.7549 11.1248 16.5373C10.2712 16.0314 9.2362 15.9342 8.30301 16.2715C7.36973 16.6087 6.63633 17.3459 6.30347 18.2809C5.97058 19.2152 6.07331 20.2502 6.58362 21.1011C7.09339 21.9525 7.95745 22.531 8.93852 22.6788C9.36809 22.7425 9.7202 23.0512 9.83996 23.4687C9.95916 23.8856 9.82403 24.3344 9.4939 24.6157C8.74242 25.254 8.31397 26.1928 8.3233 27.1783C8.33264 28.1643 8.77924 29.0948 9.54224 29.7182C10.3052 30.3423 11.3061 30.5944 12.274 30.4076C13.2419 30.2208 14.0763 29.6133 14.552 28.7504C14.7476 28.3982 15.1178 28.1802 15.5205 28.1802C15.9231 28.1802 16.2933 28.3982 16.4889 28.7504C16.9668 29.6161 17.8062 30.2237 18.7778 30.4071C19.7496 30.5911 20.7526 30.3323 21.5146 29.7012C22.2759 29.07 22.7165 28.1324 22.7165 27.1435ZM16.0742 24.9292C15.1937 24.9292 14.3487 24.5793 13.7259 23.9564C13.1035 23.334 12.7536 22.4891 12.7536 21.6086C12.7536 20.7275 13.1035 19.8828 13.7259 19.2603C14.3488 18.6374 15.1938 18.2875 16.0742 18.2875C16.9553 18.2875 17.8001 18.6374 18.4225 19.2603C19.0454 19.8827 19.3954 20.7276 19.3954 21.6086C19.3943 22.4886 19.0443 23.333 18.4214 23.9558C17.799 24.5782 16.9547 24.9281 16.0742 24.9292Z" fill="#8C916C"/>
<path d="M31.8304 55.9266H29.8161L29.782 55.9607C28.0868 57.6465 27.137 59.94 27.1436 62.3306C27.1392 63.2457 27.7759 64.0395 28.6701 64.2339C28.7091 64.2427 28.7492 64.2504 28.7882 64.2592L28.9167 63.36V63.3594C29.2337 61.1265 29.9961 58.9797 31.1584 57.0472L31.8304 55.9266Z" fill="#8C916C"/>
</svg>
