<svg width="72" height="72" viewBox="0 0 72 72" fill="none" xmlns="http://www.w3.org/2000/svg">
<path d="M55.0518 70.0396H53.2029C52.6602 70.0396 52.1389 69.8237 51.7549 69.4398C51.3709 69.0558 51.155 68.5351 51.155 67.9918V59.3906H20.8447V67.9918C20.8447 68.535 20.6288 69.0558 20.2449 69.4398C19.8609 69.8238 19.3401 70.0396 18.7968 70.0396H16.9479C16.4052 70.0396 15.8839 69.8237 15.4999 69.4398C15.1159 69.0558 14.9 68.5351 14.9 67.9918V59.3906H10.6824C10.0562 59.3933 9.45469 59.1456 9.01193 58.7028C8.56918 58.2601 8.32143 57.6586 8.32474 57.0324V39.0211C7.4299 39.1458 6.53064 38.8267 5.91541 38.1647C5.30017 37.5034 5.04639 36.5833 5.23591 35.7006C5.23865 35.0095 5.51551 34.3476 6.00496 33.8603C6.49495 33.3725 7.15742 33.099 7.84841 33.099H23.822C24.7591 32.1432 25.4244 30.9545 25.7484 29.6559H24.3532C23.9489 29.6548 23.5523 29.5428 23.2067 29.3318C22.8612 29.1214 22.58 28.8199 22.3938 28.4606L20.346 24.4863C19.6934 24.4203 19.0979 24.0831 18.7063 23.5568C18.3146 23.03 18.1625 22.3631 18.2872 21.7188C18.3053 21.0448 18.6168 20.412 19.1402 19.9869C19.6638 19.5612 20.3465 19.3854 21.0101 19.5052C21.1365 15.9961 22.4971 12.6442 24.8526 10.0398C27.2075 7.43546 30.4061 5.74641 33.8849 5.26899V4.07313C33.8849 3.31781 34.2876 2.61962 34.9418 2.24219C35.596 1.86426 36.4019 1.86426 37.0561 2.24219C37.7103 2.61957 38.1135 3.31774 38.1135 4.07313V5.26899C41.5918 5.74634 44.7904 7.43546 47.1459 10.0398C49.5008 12.6442 50.8615 15.996 50.9877 19.5052C51.6513 19.3854 52.3341 19.5612 52.8576 19.9869C53.3811 20.4121 53.6926 21.0449 53.7107 21.7188C53.8393 22.3637 53.6882 23.0323 53.296 23.5596C52.9038 24.0875 52.3061 24.4237 51.6519 24.4863L49.6042 28.4382V28.4387C49.4179 28.798 49.1367 29.099 48.7912 29.3099C48.4462 29.5209 48.0496 29.6329 47.6448 29.634H46.305C46.6318 30.9315 47.2965 32.1197 48.2314 33.0765H64.1389C64.83 33.0765 65.493 33.3506 65.9824 33.8379C66.4718 34.3257 66.7487 34.9871 66.7514 35.6781C66.9409 36.5614 66.6871 37.4815 66.0719 38.1428C65.4567 38.8042 64.5574 39.1239 63.6626 38.9992V57.0316C63.6626 57.6539 63.4154 58.251 62.9754 58.6911C62.5354 59.1311 61.9383 59.3783 61.3159 59.3783H57.0983V67.991C57.0983 68.5343 56.8824 69.055 56.4984 69.439C56.1144 69.823 55.5937 70.0388 55.0504 70.0388L55.0518 70.0396ZM52.8381 59.3901L52.8376 67.9919C52.8376 68.2061 53.0111 68.3791 53.2254 68.3791H55.0739C55.2881 68.3791 55.4617 68.2061 55.4617 67.9919V59.3907L52.8381 59.3901ZM16.5836 59.3901L16.583 67.9919C16.583 68.2061 16.7566 68.3791 16.9708 68.3791H18.8194C19.0336 68.3791 19.2066 68.2061 19.2066 67.9919V59.3907L16.5836 59.3901ZM56.2919 57.7295H61.3396L61.339 57.73C61.7181 57.73 62.0257 57.4224 62.0257 57.0434V49.2831C60.6771 50.6981 58.7452 51.4012 56.8027 51.1838C54.8604 50.9668 53.1317 49.8539 52.1292 48.1763C51.0042 50.0715 48.9635 51.2332 46.7601 51.2332C44.5563 51.2332 42.5155 50.0714 41.3911 48.1763C40.2661 50.0715 38.2259 51.2332 36.022 51.2332C33.8181 51.2332 31.778 50.0714 30.653 48.1763C29.528 50.0715 27.4878 51.2332 25.2839 51.2332C23.08 51.2332 21.0398 50.0714 19.9148 48.1763C18.9123 49.8539 17.1836 50.9668 15.2413 51.1838C13.299 51.4013 11.3669 50.6982 10.0183 49.2831V57.0323C10.0183 57.4113 10.3254 57.7189 10.7044 57.7189L56.2919 57.7295ZM52.1066 44.1911C52.5653 44.1911 52.9371 44.563 52.9371 45.0216C53.0146 46.5878 53.8951 48.0033 55.2657 48.7647C56.6368 49.5266 58.3035 49.5266 59.6746 48.7647C61.0457 48.0033 61.9263 46.5878 62.0037 45.0216V39.0215H9.97521V45.0216H9.97466C10.0521 46.5878 10.9327 48.0033 12.3037 48.7647C13.6742 49.5266 15.3415 49.5266 16.7126 48.7647C18.0831 48.0033 18.9637 46.5878 19.0412 45.0216C19.0412 44.563 19.4131 44.1911 19.8717 44.1911C20.3299 44.1911 20.7017 44.563 20.7017 45.0216C20.7017 46.6432 21.5669 48.1413 22.971 48.952C24.3756 49.7628 26.1054 49.7628 27.51 48.952C28.914 48.1412 29.7792 46.6432 29.7792 45.0216C29.7792 44.563 30.1511 44.1911 30.6092 44.1911C31.0679 44.1911 31.4398 44.563 31.4398 45.0216C31.4398 46.6432 32.305 48.1413 33.7091 48.952C35.1132 49.7627 36.8435 49.7628 38.248 48.952C39.6521 48.1412 40.5173 46.6432 40.5173 45.0216C40.5173 44.563 40.8886 44.1911 41.3473 44.1911C41.806 44.1911 42.1779 44.563 42.1779 45.0216C42.3547 50.9884 51.034 51.0103 51.2553 45.0216C51.2581 44.7986 51.3493 44.5855 51.5091 44.43C51.669 44.274 51.8843 44.1883 52.1073 44.1911H52.1066ZM7.82657 34.7373H7.82712C7.30528 34.7373 6.88119 35.157 6.87516 35.6783V36.4088C6.8812 36.9324 7.30363 37.3548 7.82712 37.3608H64.1404C64.6639 37.3548 65.0863 36.9323 65.0924 36.4088V35.6783C65.0863 35.157 64.6617 34.7373 64.1404 34.7373H7.82657ZM25.8702 33.0766H46.0963C45.3596 32.0494 44.8537 30.875 44.6125 29.6341H27.3874C27.1468 30.875 26.6409 32.0495 25.9042 33.0766H25.8702ZM45.321 27.9735H47.6128C47.8182 27.9719 48.0055 27.8571 48.1 27.6747L49.7495 24.4864H22.218L23.8231 27.6747C23.9175 27.8571 24.1049 27.9719 24.3103 27.9735H45.321ZM20.5021 21.1653C19.8819 21.1653 19.9484 21.8294 19.9599 22.2722V22.2727C19.9599 22.5721 20.2027 22.8149 20.5021 22.8149H51.4987C51.798 22.8149 52.0408 22.5721 52.0408 22.2727V21.719C52.0408 20.911 50.934 21.2318 50.2144 21.1653H21.8081H20.5021ZM22.7158 19.5047L49.2841 19.5052C48.0778 2.62317 23.9111 2.63442 22.7158 19.5052V19.5047ZM36 5.11309H36.4537C36.4537 4.60387 36.6751 3.62992 36 3.60742C35.3248 3.58544 35.6017 4.60387 35.5462 5.11309H36ZM57.4762 47.6001C56.5506 47.6001 55.6959 47.1068 55.2328 46.3048C54.7703 45.5034 54.7703 44.5162 55.2328 43.7148C55.6959 42.9134 56.5506 42.4195 57.4762 42.4195C58.4018 42.4195 59.2571 42.9134 59.7196 43.7148C60.1821 44.5163 60.1821 45.5034 59.7196 46.3048C59.2571 47.1068 58.4018 47.6001 57.4762 47.6001ZM57.4762 44.0801C56.9626 44.0801 56.5462 44.4965 56.5462 45.0101C56.5462 45.5238 56.9626 45.9396 57.4762 45.9396C57.9898 45.9396 58.4062 45.5238 58.4062 45.0101C58.4062 44.4965 57.9898 44.0801 57.4762 44.0801ZM46.7382 47.6001C45.8132 47.6001 44.9579 47.1068 44.4954 46.3048C44.0323 45.5034 44.0323 44.5162 44.4954 43.7148C44.9579 42.9134 45.8132 42.4195 46.7382 42.4195C47.6638 42.4195 48.5191 42.9134 48.9816 43.7148C49.4447 44.5163 49.4447 45.5034 48.9816 46.3048C48.5191 47.1068 47.6638 47.6001 46.7382 47.6001ZM46.7382 44.0801C46.2252 44.0801 45.8088 44.4965 45.8088 45.0101C45.8088 45.5238 46.2251 45.9396 46.7382 45.9396C47.2518 45.9396 47.6682 45.5238 47.6682 45.0101C47.6682 44.4965 47.2518 44.0801 46.7382 44.0801ZM36.0008 47.6001C35.0752 47.6001 34.2199 47.1068 33.7574 46.3048C33.2943 45.5034 33.2943 44.5162 33.7574 43.7148C34.2199 42.9134 35.0752 42.4195 36.0008 42.4195C36.9258 42.4195 37.7811 42.9134 38.2436 43.7148C38.7067 44.5163 38.7067 45.5034 38.2436 46.3048C37.7811 47.1068 36.9258 47.6001 36.0008 47.6001ZM36.0008 44.0801C35.4811 44.0801 35.0598 44.5015 35.0598 45.0211C35.0598 45.5408 35.4811 45.9621 36.0008 45.9621C36.5204 45.9621 36.9418 45.5408 36.9418 45.0211C36.9418 44.5015 36.5204 44.0801 36.0008 44.0801ZM25.2628 47.6001C24.3372 47.6001 23.4819 47.1068 23.0194 46.3048C22.5569 45.5034 22.5569 44.5162 23.0194 43.7148C23.4819 42.9134 24.3372 42.4195 25.2628 42.4195C26.1884 42.4195 27.0431 42.9134 27.5062 43.7148C27.9687 44.5163 27.9687 45.5034 27.5062 46.3048C27.0431 47.1068 26.1884 47.6001 25.2628 47.6001ZM25.2628 44.0801C24.7492 44.0801 24.3328 44.4965 24.3328 45.0101C24.3328 45.5238 24.7492 45.9396 25.2628 45.9396C25.7764 45.9396 26.1928 45.5238 26.1928 45.0101C26.1928 44.4965 25.7764 44.0801 25.2628 44.0801ZM14.5248 47.6001C13.5992 47.6001 12.7439 47.1068 12.2814 46.3048C11.8189 45.5034 11.8189 44.5162 12.2814 43.7148C12.744 42.9134 13.5992 42.4195 14.5248 42.4195C15.4504 42.4195 16.3057 42.9134 16.7682 43.7148C17.2307 44.5163 17.2307 45.5034 16.7682 46.3048C16.3057 47.1068 15.4504 47.6001 14.5248 47.6001ZM14.5248 44.0801C14.0112 44.0801 13.5948 44.4965 13.5948 45.0101C13.5948 45.5238 14.0112 45.9396 14.5248 45.9396C15.0384 45.9396 15.4548 45.5238 15.4548 45.0101C15.4548 44.4965 15.0384 44.0801 14.5248 44.0801Z" fill="#8C916C"/>
</svg>
