<svg width="147" height="72" viewBox="0 0 147 72" fill="none" xmlns="http://www.w3.org/2000/svg">
<path d="M102.875 41.4829C102.875 41.4829 121.125 51.5189 140.964 40.6539" stroke="black" stroke-width="0.2203" stroke-miterlimit="10"/>
<path d="M135.597 43.1689C135.597 43.1689 143.286 43.6589 142.89 45.7209C142.494 47.7829 135.736 45.1449 135.597 43.1689Z" stroke="black" stroke-width="0.2203" stroke-miterlimit="10" stroke-linecap="round" stroke-linejoin="round"/>
<path d="M142.856 45.8449C142.856 45.8449 140.538 44.3579 135.597 43.1689" stroke="black" stroke-width="0.2203" stroke-miterlimit="10" stroke-linecap="round" stroke-linejoin="round"/>
<path d="M142.589 46.2039C142.589 46.2039 140.738 46.4409 135.622 43.3139" stroke="black" stroke-width="0.2203" stroke-miterlimit="10" stroke-linecap="round" stroke-linejoin="round"/>
<path d="M125.061 45.5509C125.061 45.5509 132.543 47.3899 131.789 49.3489C131.035 51.3079 124.85 47.5209 125.061 45.5509Z" stroke="black" stroke-width="0.2203" stroke-miterlimit="10" stroke-linecap="round" stroke-linejoin="round"/>
<path d="M131.735 49.4659C131.735 49.4659 129.716 47.5939 125.061 45.5509" stroke="black" stroke-width="0.2203" stroke-miterlimit="10" stroke-linecap="round" stroke-linejoin="round"/>
<path d="M131.408 49.7709C131.408 49.7709 129.544 49.6779 125.06 45.6969" stroke="black" stroke-width="0.2203" stroke-miterlimit="10" stroke-linecap="round" stroke-linejoin="round"/>
<path d="M112.553 44.7409C112.553 44.7409 120.06 46.4709 119.335 48.4419C118.61 50.4119 112.37 46.7129 112.553 44.7409Z" stroke="black" stroke-width="0.2203" stroke-miterlimit="10" stroke-linecap="round" stroke-linejoin="round"/>
<path d="M119.282 48.5579C119.282 48.5579 117.236 46.7149 112.553 44.7399" stroke="black" stroke-width="0.2203" stroke-miterlimit="10" stroke-linecap="round" stroke-linejoin="round"/>
<path d="M118.96 48.8689C118.96 48.8689 117.095 48.8029 112.554 44.8869" stroke="black" stroke-width="0.2203" stroke-miterlimit="10" stroke-linecap="round" stroke-linejoin="round"/>
<path d="M129.666 44.5399C129.711 44.7289 129.954 44.7899 130.096 44.6579C131.222 43.6109 135.361 39.5989 133.989 38.4029C132.507 37.1119 129.177 42.4989 129.666 44.5399Z" stroke="black" stroke-width="0.2203" stroke-miterlimit="10" stroke-linecap="round" stroke-linejoin="round"/>
<path d="M133.886 38.3259C133.886 38.3259 133.004 40.7369 129.847 44.7209" stroke="black" stroke-width="0.2203" stroke-miterlimit="10" stroke-linecap="round" stroke-linejoin="round"/>
<path d="M133.455 38.2089C133.455 38.2089 131.852 39.1639 129.753 44.7809" stroke="black" stroke-width="0.2203" stroke-miterlimit="10" stroke-linecap="round" stroke-linejoin="round"/>
<path d="M139.716 41.0119C139.665 41.1999 139.848 41.3699 140.037 41.3219C141.528 40.9469 147.088 39.4229 146.461 37.7139C145.783 35.8699 140.27 38.9869 139.716 41.0119Z" stroke="black" stroke-width="0.2203" stroke-miterlimit="10" stroke-linecap="round" stroke-linejoin="round"/>
<path d="M146.407 37.5969C146.407 37.5969 144.473 39.2849 139.788 41.2559" stroke="black" stroke-width="0.2203" stroke-miterlimit="10" stroke-linecap="round" stroke-linejoin="round"/>
<path d="M146.085 37.2869C146.085 37.2869 144.22 37.3519 139.676 41.2639" stroke="black" stroke-width="0.2203" stroke-miterlimit="10" stroke-linecap="round" stroke-linejoin="round"/>
<path d="M119.542 45.4379C119.587 45.6269 119.83 45.6879 119.972 45.5559C121.098 44.5089 125.237 40.4969 123.865 39.3009C122.383 38.0089 119.053 43.3959 119.542 45.4379Z" stroke="black" stroke-width="0.2203" stroke-miterlimit="10" stroke-linecap="round" stroke-linejoin="round"/>
<path d="M123.763 39.2229C123.763 39.2229 122.881 41.6339 119.724 45.6179" stroke="black" stroke-width="0.2203" stroke-miterlimit="10" stroke-linecap="round" stroke-linejoin="round"/>
<path d="M123.331 39.1059C123.331 39.1059 121.728 40.0609 119.629 45.6779" stroke="black" stroke-width="0.2203" stroke-miterlimit="10" stroke-linecap="round" stroke-linejoin="round"/>
<path d="M44.6349 41.4829C44.6349 41.4829 26.3849 51.5189 6.54688 40.6539" stroke="black" stroke-width="0.2203" stroke-miterlimit="10"/>
<path d="M11.9133 43.1689C11.9133 43.1689 4.22426 43.6589 4.62026 45.7209C5.01626 47.7829 11.7733 45.1449 11.9133 43.1689Z" stroke="black" stroke-width="0.2203" stroke-miterlimit="10" stroke-linecap="round" stroke-linejoin="round"/>
<path d="M4.65332 45.8449C4.65332 45.8449 6.97132 44.3579 11.9123 43.1689" stroke="black" stroke-width="0.2203" stroke-miterlimit="10" stroke-linecap="round" stroke-linejoin="round"/>
<path d="M4.9209 46.2039C4.9209 46.2039 6.77188 46.4409 11.8879 43.3139" stroke="black" stroke-width="0.2203" stroke-miterlimit="10" stroke-linecap="round" stroke-linejoin="round"/>
<path d="M22.4484 45.5509C22.4484 45.5509 14.9664 47.3899 15.7204 49.3489C16.4744 51.3079 22.6604 47.5209 22.4484 45.5509Z" stroke="black" stroke-width="0.2203" stroke-miterlimit="10" stroke-linecap="round" stroke-linejoin="round"/>
<path d="M15.7754 49.4659C15.7754 49.4659 17.7944 47.5939 22.4494 45.5509" stroke="black" stroke-width="0.2203" stroke-miterlimit="10" stroke-linecap="round" stroke-linejoin="round"/>
<path d="M16.1016 49.7709C16.1016 49.7709 17.9656 49.6779 22.4496 45.6969" stroke="black" stroke-width="0.2203" stroke-miterlimit="10" stroke-linecap="round" stroke-linejoin="round"/>
<path d="M34.9572 44.7409C34.9572 44.7409 27.4502 46.4709 28.1742 48.4419C28.8992 50.4119 35.1402 46.7129 34.9572 44.7409Z" stroke="black" stroke-width="0.2203" stroke-miterlimit="10" stroke-linecap="round" stroke-linejoin="round"/>
<path d="M28.2275 48.5579C28.2275 48.5579 30.2735 46.7149 34.9565 44.7399" stroke="black" stroke-width="0.2203" stroke-miterlimit="10" stroke-linecap="round" stroke-linejoin="round"/>
<path d="M28.5498 48.8689C28.5498 48.8689 30.4148 48.8029 34.9558 44.8869" stroke="black" stroke-width="0.2203" stroke-miterlimit="10" stroke-linecap="round" stroke-linejoin="round"/>
<path d="M17.8427 44.5399C17.7977 44.7289 17.5547 44.7899 17.4127 44.6579C16.2867 43.6109 12.1477 39.5989 13.5197 38.4029C15.0017 37.1119 18.3317 42.4989 17.8427 44.5399Z" stroke="black" stroke-width="0.2203" stroke-miterlimit="10" stroke-linecap="round" stroke-linejoin="round"/>
<path d="M13.623 38.3259C13.623 38.3259 14.505 40.7369 17.662 44.7209" stroke="black" stroke-width="0.2203" stroke-miterlimit="10" stroke-linecap="round" stroke-linejoin="round"/>
<path d="M14.0547 38.2089C14.0547 38.2089 15.6577 39.1639 17.7567 44.7809" stroke="black" stroke-width="0.2203" stroke-miterlimit="10" stroke-linecap="round" stroke-linejoin="round"/>
<path d="M7.79408 41.0119C7.84508 41.1999 7.66209 41.3699 7.47309 41.3219C5.98209 40.9469 0.422082 39.4229 1.04908 37.7139C1.72708 35.8699 7.23908 38.9869 7.79408 41.0119Z" stroke="black" stroke-width="0.2203" stroke-miterlimit="10" stroke-linecap="round" stroke-linejoin="round"/>
<path d="M1.10352 37.5969C1.10352 37.5969 3.03753 39.2849 7.72253 41.2559" stroke="black" stroke-width="0.2203" stroke-miterlimit="10" stroke-linecap="round" stroke-linejoin="round"/>
<path d="M1.4248 37.2869C1.4248 37.2869 3.2898 37.3519 7.8338 41.2639" stroke="black" stroke-width="0.2203" stroke-miterlimit="10" stroke-linecap="round" stroke-linejoin="round"/>
<path d="M27.9671 45.4379C27.9221 45.6269 27.6791 45.6879 27.5371 45.5559C26.4111 44.5089 22.2721 40.4969 23.6451 39.3009C25.1261 38.0089 28.4561 43.3959 27.9671 45.4379Z" stroke="black" stroke-width="0.2203" stroke-miterlimit="10" stroke-linecap="round" stroke-linejoin="round"/>
<path d="M23.7471 39.2229C23.7471 39.2229 24.6291 41.6339 27.7861 45.6179" stroke="black" stroke-width="0.2203" stroke-miterlimit="10" stroke-linecap="round" stroke-linejoin="round"/>
<path d="M24.1787 39.1059C24.1787 39.1059 25.7817 40.0609 27.8807 45.6779" stroke="black" stroke-width="0.2203" stroke-miterlimit="10" stroke-linecap="round" stroke-linejoin="round"/>
<path d="M71.8455 40.3259C71.8455 40.3259 51.4055 36.3269 43.1465 15.2699" stroke="black" stroke-width="0.2203" stroke-miterlimit="10"/>
<path d="M45.6528 20.6409C45.6528 20.6409 39.4378 16.0879 38.4198 17.9239C37.4018 19.7599 44.2788 22.0679 45.6528 20.6409Z" stroke="black" stroke-width="0.2203" stroke-miterlimit="10" stroke-linecap="round" stroke-linejoin="round"/>
<path d="M38.3672 18.0409C38.3672 18.0409 41.0992 18.3859 45.6542 20.6409" stroke="black" stroke-width="0.2203" stroke-miterlimit="10" stroke-linecap="round" stroke-linejoin="round"/>
<path d="M38.3418 18.4869C38.3418 18.4869 39.6108 19.8559 45.5418 20.7359" stroke="black" stroke-width="0.2203" stroke-miterlimit="10" stroke-linecap="round" stroke-linejoin="round"/>
<path d="M52.2106 29.2239C52.2106 29.2239 45.2906 25.8379 44.6116 27.8249C43.9326 29.8119 51.1106 30.8709 52.2106 29.2239Z" stroke="black" stroke-width="0.2203" stroke-miterlimit="10" stroke-linecap="round" stroke-linejoin="round"/>
<path d="M44.5801 27.9489C44.5801 27.9489 47.3301 27.8069 52.2111 29.2229" stroke="black" stroke-width="0.2203" stroke-miterlimit="10" stroke-linecap="round" stroke-linejoin="round"/>
<path d="M44.6348 28.3929C44.6348 28.3929 46.1248 29.5169 52.1188 29.3369" stroke="black" stroke-width="0.2203" stroke-miterlimit="10" stroke-linecap="round" stroke-linejoin="round"/>
<path d="M62.3311 36.6209C62.3311 36.6209 55.4601 33.1359 54.7531 35.1129C54.0461 37.0899 61.2061 38.2529 62.3311 36.6209Z" stroke="black" stroke-width="0.2203" stroke-miterlimit="10" stroke-linecap="round" stroke-linejoin="round"/>
<path d="M54.7178 35.2369C54.7178 35.2369 57.4698 35.1349 62.3298 36.6209" stroke="black" stroke-width="0.2203" stroke-miterlimit="10" stroke-linecap="round" stroke-linejoin="round"/>
<path d="M54.7676 35.6819C54.7676 35.6819 56.2416 36.8269 62.2366 36.7339" stroke="black" stroke-width="0.2203" stroke-miterlimit="10" stroke-linecap="round" stroke-linejoin="round"/>
<path d="M49.326 25.4959C49.17 25.6119 48.945 25.5039 48.92 25.3099C48.727 23.7849 48.123 18.0519 49.943 18.0139C51.908 17.9729 51.01 24.2419 49.326 25.4959Z" stroke="black" stroke-width="0.2203" stroke-miterlimit="10" stroke-linecap="round" stroke-linejoin="round"/>
<path d="M50.0713 18.0209C50.0713 18.0209 49.2023 20.4369 49.0713 25.5179" stroke="black" stroke-width="0.2203" stroke-miterlimit="10" stroke-linecap="round" stroke-linejoin="round"/>
<path d="M50.4774 18.2079C50.4774 18.2079 51.0955 19.9689 49.1055 25.6249" stroke="black" stroke-width="0.2203" stroke-miterlimit="10" stroke-linecap="round" stroke-linejoin="round"/>
<path d="M43.8751 16.3449C43.7941 16.5219 43.5451 16.5349 43.4301 16.3779C42.5271 15.1339 39.2361 10.3999 40.8131 9.49092C42.5161 8.50892 44.7481 14.4349 43.8751 16.3449Z" stroke="black" stroke-width="0.2203" stroke-miterlimit="10" stroke-linecap="round" stroke-linejoin="round"/>
<path d="M40.9287 9.43393C40.9287 9.43393 41.3307 11.9689 43.6617 16.4859" stroke="black" stroke-width="0.2203" stroke-miterlimit="10" stroke-linecap="round" stroke-linejoin="round"/>
<path d="M41.375 9.40292C41.375 9.40292 42.765 10.6489 43.744 16.5639" stroke="black" stroke-width="0.2203" stroke-miterlimit="10" stroke-linecap="round" stroke-linejoin="round"/>
<path d="M56.5193 32.6749C56.3633 32.7909 56.1383 32.6829 56.1133 32.4889C55.9203 30.9639 55.3163 25.2309 57.1363 25.1929C59.1013 25.1529 58.2033 31.4219 56.5193 32.6749Z" stroke="black" stroke-width="0.2203" stroke-miterlimit="10" stroke-linecap="round" stroke-linejoin="round"/>
<path d="M57.2646 25.1999C57.2646 25.1999 56.3956 27.6159 56.2646 32.6969" stroke="black" stroke-width="0.2203" stroke-miterlimit="10" stroke-linecap="round" stroke-linejoin="round"/>
<path d="M57.6708 25.3869C57.6708 25.3869 58.2888 27.1479 56.2988 32.8039" stroke="black" stroke-width="0.2203" stroke-miterlimit="10" stroke-linecap="round" stroke-linejoin="round"/>
<path d="M76.4609 48.1689C76.4609 48.1689 96.9009 44.1699 105.16 23.1129" stroke="black" stroke-width="0.2203" stroke-miterlimit="10"/>
<path d="M102.654 28.4839C102.654 28.4839 108.869 23.9309 109.887 25.7669C110.905 27.6029 104.028 29.9109 102.654 28.4839Z" stroke="black" stroke-width="0.2203" stroke-miterlimit="10" stroke-linecap="round" stroke-linejoin="round"/>
<path d="M109.941 25.8839C109.941 25.8839 107.209 26.2289 102.654 28.4839" stroke="black" stroke-width="0.2203" stroke-miterlimit="10" stroke-linecap="round" stroke-linejoin="round"/>
<path d="M109.966 26.3299C109.966 26.3299 108.697 27.6989 102.766 28.5789" stroke="black" stroke-width="0.2203" stroke-miterlimit="10" stroke-linecap="round" stroke-linejoin="round"/>
<path d="M96.0957 37.0659C96.0957 37.0659 103.016 33.6799 103.695 35.6669C104.373 37.6549 97.1967 38.7139 96.0957 37.0659Z" stroke="black" stroke-width="0.2203" stroke-miterlimit="10" stroke-linecap="round" stroke-linejoin="round"/>
<path d="M103.727 35.7919C103.727 35.7919 100.977 35.6499 96.0957 37.0659" stroke="black" stroke-width="0.2203" stroke-miterlimit="10" stroke-linecap="round" stroke-linejoin="round"/>
<path d="M103.672 36.2359C103.672 36.2359 102.182 37.3589 96.1885 37.1799" stroke="black" stroke-width="0.2203" stroke-miterlimit="10" stroke-linecap="round" stroke-linejoin="round"/>
<path d="M85.9766 44.4639C85.9766 44.4639 92.8476 40.9789 93.5546 42.9559C94.2616 44.9329 87.1006 46.0959 85.9766 44.4639Z" stroke="black" stroke-width="0.2203" stroke-miterlimit="10" stroke-linecap="round" stroke-linejoin="round"/>
<path d="M93.5886 43.0799C93.5886 43.0799 90.8366 42.9779 85.9766 44.4649" stroke="black" stroke-width="0.2203" stroke-miterlimit="10" stroke-linecap="round" stroke-linejoin="round"/>
<path d="M93.5403 43.5239C93.5403 43.5239 92.0663 44.6689 86.0713 44.5759" stroke="black" stroke-width="0.2203" stroke-miterlimit="10" stroke-linecap="round" stroke-linejoin="round"/>
<path d="M98.9818 33.3379C99.1378 33.4539 99.3627 33.3459 99.3877 33.1519C99.5807 31.6269 100.185 25.8939 98.3648 25.8559C96.3998 25.8159 97.2978 32.0849 98.9818 33.3379Z" stroke="black" stroke-width="0.2203" stroke-miterlimit="10" stroke-linecap="round" stroke-linejoin="round"/>
<path d="M98.2354 25.8639C98.2354 25.8639 99.1044 28.2799 99.2354 33.3609" stroke="black" stroke-width="0.2203" stroke-miterlimit="10" stroke-linecap="round" stroke-linejoin="round"/>
<path d="M97.83 26.0499C97.83 26.0499 97.212 27.8109 99.202 33.4669" stroke="black" stroke-width="0.2203" stroke-miterlimit="10" stroke-linecap="round" stroke-linejoin="round"/>
<path d="M104.432 24.1879C104.513 24.3649 104.763 24.3779 104.877 24.2209C105.78 22.9769 109.071 18.2429 107.494 17.3339C105.791 16.3509 103.56 22.2779 104.432 24.1879Z" stroke="black" stroke-width="0.2203" stroke-miterlimit="10" stroke-linecap="round" stroke-linejoin="round"/>
<path d="M107.378 17.2769C107.378 17.2769 106.976 19.8119 104.645 24.3289" stroke="black" stroke-width="0.2203" stroke-miterlimit="10" stroke-linecap="round" stroke-linejoin="round"/>
<path d="M106.931 17.2459C106.931 17.2459 105.541 18.4919 104.562 24.4069" stroke="black" stroke-width="0.2203" stroke-miterlimit="10" stroke-linecap="round" stroke-linejoin="round"/>
<path d="M91.7884 40.5179C91.9444 40.6339 92.1694 40.5259 92.1944 40.3319C92.3874 38.8069 92.9914 33.0739 91.1714 33.0359C89.2064 32.9959 90.1044 39.2649 91.7884 40.5179Z" stroke="black" stroke-width="0.2203" stroke-miterlimit="10" stroke-linecap="round" stroke-linejoin="round"/>
<path d="M91.042 33.0429C91.042 33.0429 91.911 35.4589 92.042 40.5399" stroke="black" stroke-width="0.2203" stroke-miterlimit="10" stroke-linecap="round" stroke-linejoin="round"/>
<path d="M90.6366 33.2299C90.6366 33.2299 90.0186 34.9909 92.0086 40.6469" stroke="black" stroke-width="0.2203" stroke-miterlimit="10" stroke-linecap="round" stroke-linejoin="round"/>
<path d="M75.3848 56.9269C75.3848 56.9269 81.3118 45.7989 84.1178 47.7829C86.9228 49.7659 78.4248 58.0549 75.3848 56.9269Z" stroke="black" stroke-width="0.3605" stroke-miterlimit="10" stroke-linecap="round" stroke-linejoin="round"/>
<path d="M84.2798 47.9159C84.2798 47.9159 80.4978 50.3659 75.3848 56.9269" stroke="black" stroke-width="0.3605" stroke-miterlimit="10" stroke-linecap="round" stroke-linejoin="round"/>
<path d="M84.6332 48.5569C84.6332 48.5569 83.7352 51.4759 75.6162 56.9869" stroke="black" stroke-width="0.3605" stroke-miterlimit="10" stroke-linecap="round" stroke-linejoin="round"/>
<path d="M76.6642 46.7519C76.6642 46.7519 78.8002 34.3259 75.3672 34.1739C71.9342 34.0219 73.5702 45.7799 76.6642 46.7519Z" stroke="black" stroke-width="0.3605" stroke-miterlimit="10" stroke-linecap="round" stroke-linejoin="round"/>
<path d="M75.1572 34.1799C75.1572 34.1799 76.6452 38.4339 76.6642 46.7519" stroke="black" stroke-width="0.3605" stroke-miterlimit="10" stroke-linecap="round" stroke-linejoin="round"/>
<path d="M74.485 34.4699C74.485 34.4699 73.406 37.3269 76.443 46.6579" stroke="black" stroke-width="0.3605" stroke-miterlimit="10" stroke-linecap="round" stroke-linejoin="round"/>
<path d="M80.0312 35.2489C80.0312 35.2489 85.9583 24.1209 88.7643 26.1049C91.5703 28.0889 83.0712 36.3779 80.0312 35.2489Z" stroke="black" stroke-width="0.3605" stroke-miterlimit="10" stroke-linecap="round" stroke-linejoin="round"/>
<path d="M88.9263 26.2389C88.9263 26.2389 85.1442 28.6889 80.0312 35.2499" stroke="black" stroke-width="0.3605" stroke-miterlimit="10" stroke-linecap="round" stroke-linejoin="round"/>
<path d="M89.2797 26.8799C89.2797 26.8799 88.3817 29.7989 80.2627 35.3099" stroke="black" stroke-width="0.3605" stroke-miterlimit="10" stroke-linecap="round" stroke-linejoin="round"/>
<path d="M89.9375 17.0499C89.9375 17.0499 95.8645 5.92191 98.6705 7.90591C101.476 9.88991 92.9775 18.1789 89.9375 17.0499Z" stroke="black" stroke-width="0.3605" stroke-miterlimit="10" stroke-linecap="round" stroke-linejoin="round"/>
<path d="M98.8325 8.03992C98.8325 8.03992 95.0505 10.4899 89.9375 17.0509" stroke="black" stroke-width="0.3605" stroke-miterlimit="10" stroke-linecap="round" stroke-linejoin="round"/>
<path d="M99.1859 8.68091C99.1859 8.68091 98.2879 11.5999 90.1689 17.1109" stroke="black" stroke-width="0.3605" stroke-miterlimit="10" stroke-linecap="round" stroke-linejoin="round"/>
<path d="M84.255 25.9619C84.255 25.9619 86.391 13.5369 82.958 13.3839C79.525 13.2329 81.161 24.9909 84.255 25.9619Z" stroke="black" stroke-width="0.3605" stroke-miterlimit="10" stroke-linecap="round" stroke-linejoin="round"/>
<path d="M82.748 13.3909C82.748 13.3909 84.236 17.6449 84.255 25.9629" stroke="black" stroke-width="0.3605" stroke-miterlimit="10" stroke-linecap="round" stroke-linejoin="round"/>
<path d="M82.0761 13.6809C82.0761 13.6809 80.9961 16.5379 84.0341 25.8689" stroke="black" stroke-width="0.3605" stroke-miterlimit="10" stroke-linecap="round" stroke-linejoin="round"/>
<path d="M93.2248 14.0829C93.2248 14.0829 73.4968 29.9229 74.9528 70.8939" stroke="black" stroke-width="0.3605" stroke-miterlimit="10" stroke-linecap="round" stroke-linejoin="round"/>
<path d="M70.7781 35.2489C70.7781 35.2489 70.3211 22.6489 73.7431 22.9569C77.1661 23.2649 73.9741 34.6999 70.7781 35.2489Z" stroke="black" stroke-width="0.3605" stroke-miterlimit="10" stroke-linecap="round" stroke-linejoin="round"/>
<path d="M73.9513 22.9919C73.9513 22.9919 71.9083 27.0089 70.7783 35.2499" stroke="black" stroke-width="0.3605" stroke-miterlimit="10" stroke-linecap="round" stroke-linejoin="round"/>
<path d="M74.5778 23.3689C74.5778 23.3689 75.2658 26.3449 71.0088 35.1859" stroke="black" stroke-width="0.3605" stroke-miterlimit="10" stroke-linecap="round" stroke-linejoin="round"/>
<path d="M65.9334 18.1289C65.9334 18.1289 65.4764 5.52991 68.8984 5.83691C72.3214 6.14491 69.1294 17.5789 65.9334 18.1289Z" stroke="black" stroke-width="0.3605" stroke-miterlimit="10" stroke-linecap="round" stroke-linejoin="round"/>
<path d="M69.1066 5.87091C69.1066 5.87091 67.0646 9.88791 65.9336 18.1289" stroke="black" stroke-width="0.3605" stroke-miterlimit="10" stroke-linecap="round" stroke-linejoin="round"/>
<path d="M69.734 6.24792C69.734 6.24792 70.422 9.22391 66.165 18.0649" stroke="black" stroke-width="0.3605" stroke-miterlimit="10" stroke-linecap="round" stroke-linejoin="round"/>
<path d="M62.5929 11.3159C62.5929 11.3159 52.9739 3.16495 55.5069 0.843947C58.0399 -1.47805 64.3399 8.58393 62.5929 11.3159Z" stroke="black" stroke-width="0.3605" stroke-miterlimit="10" stroke-linecap="round" stroke-linejoin="round"/>
<path d="M55.6719 0.712921C55.6719 0.712921 57.2639 4.92892 62.5929 11.3159" stroke="black" stroke-width="0.3605" stroke-miterlimit="10" stroke-linecap="round" stroke-linejoin="round"/>
<path d="M56.373 0.503906C56.373 0.503906 59.036 1.99993 62.701 11.1019" stroke="black" stroke-width="0.3605" stroke-miterlimit="10" stroke-linecap="round" stroke-linejoin="round"/>
<path d="M73.4494 52.1809C73.4494 52.1809 67.4684 41.0819 64.6724 43.0789C61.8764 45.0759 70.4154 53.3229 73.4494 52.1809Z" stroke="black" stroke-width="0.3605" stroke-miterlimit="10" stroke-linecap="round" stroke-linejoin="round"/>
<path d="M64.5107 43.2129C64.5107 43.2129 68.3047 45.6439 73.4497 52.1799" stroke="black" stroke-width="0.3605" stroke-miterlimit="10" stroke-linecap="round" stroke-linejoin="round"/>
<path d="M64.1602 43.8559C64.1602 43.8559 65.0722 46.7709 73.2172 52.2429" stroke="black" stroke-width="0.3605" stroke-miterlimit="10" stroke-linecap="round" stroke-linejoin="round"/>
<path d="M68.6887 26.4529C68.6887 26.4529 62.7077 15.3539 59.9117 17.3509C57.1157 19.3479 65.6537 27.5959 68.6887 26.4529Z" stroke="black" stroke-width="0.3605" stroke-miterlimit="10" stroke-linecap="round" stroke-linejoin="round"/>
<path d="M59.75 17.4859C59.75 17.4859 63.544 19.9169 68.689 26.4529" stroke="black" stroke-width="0.3605" stroke-miterlimit="10" stroke-linecap="round" stroke-linejoin="round"/>
<path d="M59.3994 18.1289C59.3994 18.1289 60.3114 21.0439 68.4564 26.5159" stroke="black" stroke-width="0.3605" stroke-miterlimit="10" stroke-linecap="round" stroke-linejoin="round"/>
<path d="M74.8772 67.0149C74.8772 67.0149 72.1872 23.7239 61.4092 9.47992" stroke="black" stroke-width="0.3605" stroke-miterlimit="10" stroke-linecap="round" stroke-linejoin="round"/>
</svg>
