<svg width="72" height="72" viewBox="0 0 72 72" fill="none" xmlns="http://www.w3.org/2000/svg">
<path d="M36.5527 70.9706H29.911C29.4551 70.9646 29.0865 70.5965 29.0804 70.1406V57.7201H27.4204C26.8013 57.7168 26.2091 57.4701 25.7718 57.0323C25.334 56.5951 25.0874 56.0029 25.0841 55.3838V52.3399H13.0733C12.4245 52.3399 11.8022 52.0818 11.3435 51.6231C10.8848 51.1644 10.6266 50.542 10.6266 49.8932V35.115H7.30546H7.30601C7.39555 35.5896 7.27744 36.0801 6.98081 36.4613C6.68418 36.8426 6.23814 37.0782 5.75584 37.1079H3.54212C2.65993 37.1018 1.948 36.385 1.948 35.5028V27.6206C1.96008 26.7428 2.6753 26.0375 3.55309 26.0375H5.76681C6.2568 26.055 6.71493 26.2852 7.02145 26.6681C7.32797 27.051 7.45157 27.5486 7.36094 28.0304H10.6821V25.285C10.6821 24.6362 10.9397 24.0138 11.3989 23.5551C11.8576 23.0965 12.48 22.8383 13.1288 22.8383H16.339C6.18752 16.7387 10.3388 1.1525 22.2947 1.03015C24.643 1.0329 26.9365 1.73878 28.8799 3.05656C30.8233 4.37492 32.3275 6.24425 33.1986 8.42506C34.072 6.24368 35.5783 4.37337 37.5234 3.05543C39.4685 1.73762 41.7641 1.03226 44.1135 1.03015C56.0694 1.1521 60.2095 16.7492 50.1247 22.8383H53.4458C54.0946 22.8383 54.7169 23.0965 55.1756 23.5551C55.6343 24.0138 55.892 24.6362 55.892 25.285V30.7314H60.0542L68.7994 25.0635H68.7999C69.057 24.9047 69.3789 24.8954 69.6448 25.0393C69.9101 25.1838 70.0776 25.459 70.0842 25.7611V49.4171C70.0776 49.7192 69.9101 49.9944 69.6448 50.1388C69.3789 50.2828 69.057 50.2734 68.7999 50.1147L60.0547 44.4468H55.8481V49.8932C55.8481 50.5419 55.5904 51.1643 55.1312 51.623C54.6725 52.0817 54.0502 52.3399 53.4014 52.3399H41.3906V55.3841V55.3836C41.3878 56.0027 41.1407 56.5948 40.7034 57.0321C40.2656 57.4699 39.6734 57.7166 39.0549 57.7199H37.3832V70.1404C37.3772 70.5964 37.0086 70.9644 36.5527 70.9705L36.5527 70.9706ZM30.7519 69.31H35.7222L35.7227 57.72H30.7519L30.7519 69.31ZM36.5527 56.0258H39.0548C39.4278 56.0258 39.73 55.7237 39.73 55.3507V52.34H26.7447V55.3842V55.3837C26.7507 55.7544 27.0495 56.0533 27.4203 56.0593L36.5527 56.0258ZM40.56 50.6458H53.4013C53.8352 50.6458 54.1873 50.2943 54.1873 49.8597V25.2841C54.1873 24.8502 53.8352 24.4981 53.4013 24.4981H13.0728C12.6389 24.4981 12.2868 24.8502 12.2868 25.2841V49.8935C12.2868 50.3275 12.6389 50.6796 13.0728 50.6796L40.56 50.6458ZM61.0842 43.1296L68.3791 47.8564V27.2886L61.0842 32.0154V43.1296ZM55.8482 42.7533H59.4237V32.3915H55.8482V42.7533ZM3.62003 35.4469H5.75626C5.65684 33.8083 5.75626 29.2588 5.6898 27.6203L3.55356 27.6757L3.62003 35.4469ZM7.35039 33.4545H10.5386V29.668H7.35039V33.4545ZM44.114 2.68997C41.4444 2.69272 38.884 3.75345 36.9943 5.6393C35.1041 7.52508 34.0379 10.0828 34.0291 12.753C34.5828 26.1255 53.6336 26.1146 54.1876 12.753H54.1882C54.1822 10.0839 53.1187 7.52621 51.2307 5.63986C49.3421 3.75352 46.7835 2.69279 44.1144 2.68997H44.114ZM28.3063 22.8373H38.0924H38.0919C35.8814 21.5085 34.1636 19.4958 33.1991 17.1036C32.2427 19.5003 30.5229 21.5157 28.3063 22.8373ZM22.2952 2.68997C19.6244 2.69272 17.0635 3.75509 15.1749 5.64366C13.2863 7.53225 12.2246 10.0932 12.2212 12.7639C12.7749 26.1365 31.8257 26.1255 32.3686 12.7639H32.3691C32.3658 10.0932 31.3034 7.53225 29.4149 5.64366C27.5263 3.75507 24.9659 2.69279 22.2952 2.68997ZM46.0734 46.3948C45.1484 46.3948 44.2931 45.901 43.8301 45.0995C43.3675 44.2981 43.3675 43.3104 43.8301 42.5089C44.2931 41.7075 45.1484 41.2137 46.0734 41.2137C46.999 41.2137 47.8543 41.7075 48.3168 42.5089C48.7799 43.3104 48.7799 44.2981 48.3168 45.0995C47.8543 45.901 46.999 46.3948 46.0734 46.3948ZM46.0734 42.8743C45.5598 42.8743 45.1435 43.2907 45.1435 43.8043C45.1435 44.3179 45.5598 44.7343 46.0734 44.7343C46.5871 44.7343 47.0034 44.3179 47.0034 43.8043C47.0034 43.2907 46.5871 42.8743 46.0734 42.8743ZM38.1253 46.3948H18.653C18.1943 46.3948 17.8224 46.0229 17.8224 45.5643V35.0036C17.8197 34.7822 17.9059 34.5696 18.0625 34.4131C18.219 34.2565 18.4316 34.1703 18.653 34.173H38.1253C38.584 34.173 38.9553 34.5449 38.9553 35.0036V45.5643C38.9493 46.0202 38.5812 46.3888 38.1253 46.3948ZM19.4827 44.7342H37.2942V35.878H19.4827V44.7342ZM46.0509 40.1843C45.1253 40.1843 44.2701 39.6904 43.8076 38.889C43.345 38.0875 43.345 37.1004 43.8076 36.2989C44.2701 35.4975 45.1254 35.0037 46.0509 35.0037C46.9765 34.9998 47.8335 35.4898 48.2998 36.2891C48.7662 37.0889 48.77 38.076 48.3108 38.8796C47.8516 39.6833 46.9985 40.1804 46.0729 40.1843L46.0509 40.1843ZM46.0509 36.6643C45.5373 36.6643 45.1209 37.0806 45.1209 37.5943C45.1209 38.1073 45.5373 38.5237 46.0509 38.5237C46.5645 38.5298 46.9859 38.1189 46.9919 37.6053C46.998 37.0917 46.5865 36.6703 46.0729 36.6643L46.0509 36.6643ZM46.0509 33.9633C45.1253 33.9633 44.2701 33.4694 43.8076 32.668C43.345 31.8666 43.345 30.8788 43.8076 30.0774C44.2701 29.276 45.1254 28.7821 46.0509 28.7821C46.9765 28.7783 47.8335 29.2683 48.2998 30.0681C48.7662 30.8673 48.77 31.855 48.3108 32.6581C47.8516 33.4617 46.9985 33.9589 46.0729 33.9633L46.0509 33.9633ZM46.0509 30.4433V30.4427C45.5373 30.4427 45.1209 30.8591 45.1209 31.3727C45.1209 31.8864 45.5373 32.3027 46.0509 32.3027C46.5047 32.2379 46.8436 31.8518 46.8491 31.3931C46.8546 30.9349 46.525 30.5405 46.0729 30.4647L46.0509 30.4433ZM38.1028 30.4433L18.653 30.4427C18.1943 30.4427 17.8224 30.0709 17.8224 29.6127C17.8224 29.1541 18.1943 28.7822 18.653 28.7822H38.1253C38.59 28.7822 38.9663 29.159 38.9663 29.6237C38.9663 30.0885 38.59 30.4647 38.1253 30.4647L38.1028 30.4433ZM44.0915 18.377V18.3764C42.6045 18.3737 41.179 17.7804 40.1287 16.7273C39.0783 15.6742 38.489 14.2477 38.4901 12.7601C38.4912 11.2732 39.0823 9.84709 40.1337 8.79522C41.1857 7.74382 42.6117 7.15216 44.0986 7.15159C45.5862 7.1505 47.0128 7.73991 48.0658 8.79016C49.1189 9.84046 49.7121 11.2654 49.7149 12.753C49.7182 14.2411 49.1293 15.6698 48.079 16.7245C47.0287 17.7792 45.6022 18.3736 44.1136 18.3763L44.0915 18.377ZM44.0915 8.81222V8.81167C42.6797 8.81167 41.3752 9.56534 40.6687 10.7882C39.9628 12.0109 39.9628 13.5171 40.6687 14.74C41.3751 15.9628 42.6797 16.7159 44.0915 16.7159C45.5032 16.7198 46.81 15.9705 47.5198 14.7494C48.2289 13.5288 48.2333 12.0226 47.5308 10.7976C46.8282 9.57259 45.5257 8.81617 44.1134 8.81181L44.0915 8.81222ZM22.2946 18.3764C20.8065 18.3764 19.3799 17.7853 18.3274 16.7339C17.2749 15.682 16.6834 14.2554 16.6823 12.7673C16.6812 11.2798 17.2711 9.85214 18.3219 8.799C19.3733 7.74596 20.7993 7.15327 22.2874 7.15158C23.775 7.14938 25.2026 7.73826 26.2569 8.7886C27.3104 9.8389 27.9043 11.2649 27.9069 12.753C27.9069 14.2422 27.3159 15.6709 26.2639 16.725C25.2114 17.7797 23.7842 18.3736 22.2945 18.3763L22.2946 18.3764ZM22.2946 8.81166C20.8829 8.81166 19.5783 9.56532 18.8718 10.7881C18.1659 12.0109 18.1659 13.5171 18.8718 14.74C19.5782 15.9628 20.8829 16.7159 22.2946 16.7159C23.7063 16.7159 25.0109 15.9628 25.7174 14.74C26.4233 13.5172 26.4233 12.011 25.7174 10.7881C25.011 9.56537 23.7063 8.81166 22.2946 8.81166Z" fill="#8C916C"/>
</svg>
