<svg width="100" height="100" viewBox="0 0 100 100" fill="none" xmlns="http://www.w3.org/2000/svg">
<path d="M42.6311 8.0918C43.3628 7.36167 44.3538 6.95198 45.3876 6.95198C46.4213 6.95198 47.4124 7.36169 48.144 8.0918L48.913 8.86085V8.86008C49.2014 9.14848 49.5921 9.31022 50.0002 9.31022C50.4076 9.31022 50.799 9.14848 51.0874 8.86008L51.8565 8.09104L51.8557 8.0918C52.8407 7.10684 54.2766 6.72233 55.6215 7.08243C56.9666 7.44331 58.0172 8.49388 58.378 9.83888C58.7381 11.1839 58.3536 12.6197 57.3686 13.6047L50 20.9732L42.6309 13.6047C41.8992 12.873 41.4888 11.882 41.4888 10.8483C41.4888 9.8137 41.8992 8.82266 42.6309 8.0918H42.6311Z" fill="#8C916C"/>
<path d="M68.9356 39.9004C71.3739 39.3358 73.2614 39.377 74.7042 40.027C77.0296 41.0746 78.1825 43.6899 78.486 45.7872C78.6836 47.1536 78.5753 48.3071 78.1633 49.2167C77.7383 50.1559 76.9296 50.8326 76.1041 50.9402C75.696 50.9936 75.3259 51.2087 75.0772 51.5368C74.8285 51.8649 74.7217 52.2791 74.7812 52.6865C75.1062 54.9205 75.258 57.3725 73.9229 58.6168C73.1401 59.3469 71.8049 59.6643 69.8426 59.5896C65.3588 59.4049 61.0231 57.934 57.3526 55.3515C57.5746 54.8197 57.6883 54.249 57.6883 53.6722V50.1314C57.6883 49.0168 57.2626 47.9441 56.4966 47.1338C59.829 43.5365 64.161 41.0174 68.9356 39.9004ZM45.3888 50.1315C45.3903 49.412 45.9732 48.8283 46.6934 48.8268H53.3088C54.029 48.8283 54.6127 49.412 54.6134 50.1315V53.6723C54.6127 54.3925 54.029 54.9761 53.3088 54.9769H46.6934C45.9732 54.9761 45.3895 54.3925 45.3888 53.6723V50.1315ZM21.2696 45.6682C21.7396 43.0924 24.0147 40.7305 26.9305 39.7889C29.51 38.9565 32.6671 39.0778 36.0591 40.1375C41.7223 41.9083 43.471 45.0676 44.0044 46.6782C42.9378 47.5067 42.3137 48.7809 42.3129 50.1313V53.6721C42.3129 54.1429 42.3892 54.6113 42.5387 55.0576C37.537 57.5838 33.3614 58.7242 29.8175 58.532C29.0995 58.4939 28.1977 58.3955 27.585 57.9812C26.4032 57.1816 26.1835 55.224 26.1232 53.2273C26.1011 52.5193 25.5999 51.9181 24.9071 51.7701C22.5145 51.2589 20.7803 48.3506 21.2694 45.6681L21.2696 45.6682ZM19.5469 86.2971V86.2963C18.0943 86.2971 16.6889 85.7829 15.5789 84.846C14.4696 83.9091 13.7273 82.609 13.4832 81.177C13.2398 79.7457 13.5114 78.2733 14.2492 77.0221L22.6728 85.445C21.7268 86.005 20.6465 86.2987 19.5478 86.2964L19.5469 86.2971ZM35.4328 87.6185L35.4336 87.6177C34.6226 88.9162 33.8787 90.2552 33.2051 91.63L8.06445 66.4894C12.4758 64.3333 16.498 61.4585 19.9664 57.9841L23.1357 54.8148C23.3402 57.0976 23.9498 59.2353 25.8633 60.5292C27.1015 61.367 28.5381 61.5432 29.652 61.6035C32.4619 61.7576 35.548 61.2182 38.9865 59.9677L38.9873 59.967C37.601 61.9414 36.4047 64.0418 35.4129 66.2414C33.5856 70.2888 31.0076 78.2011 34.2791 85.717L34.2784 85.7162C34.5225 86.2777 35.0764 86.6401 35.6883 86.6401C35.7074 86.6401 35.728 86.6401 35.7486 86.6386L35.7478 86.6394C35.8638 86.6333 35.9782 86.6134 36.0896 86.5814L35.4328 87.6185ZM43.2637 79.3697H43.2645C40.6842 78.8646 38.0223 79.6825 36.1707 81.5486C35.494 78.3404 35.4741 73.5775 38.2154 67.5066C39.8557 63.8681 42.1025 60.5349 44.86 57.6486C45.3452 57.8736 45.8686 58.0071 46.4026 58.0422C42.5948 64.4624 41.4671 72.1239 43.2647 79.3684L43.2637 79.3697ZM46.726 74.7111L45.6991 75.738C45.342 72.9319 45.4572 70.0854 46.0386 67.3167C46.4262 69.3315 47.1449 71.2679 48.1665 73.0472C47.7263 73.6346 47.2457 74.1901 46.7269 74.7104L46.726 74.7111ZM49.2856 59.8962H49.2863C51.1174 64.6853 52.4533 69.6482 53.275 74.7087C49.4092 70.8292 47.8918 65.1911 49.2863 59.8954L49.2856 59.8962ZM57.0553 80.2419C56.4182 72.6324 54.6711 65.1564 51.8695 58.0525H53.3092C53.8059 58.0525 54.298 57.9678 54.7657 57.8022C55.6163 59.367 56.7173 60.7198 57.7907 62.0358C58.4392 62.8316 59.0518 63.5831 59.6118 64.3772C62.2661 68.1431 63.7317 72.6063 64.9516 77.097V77.0977C63.2472 76.8704 61.5145 77.1862 60.0009 78.001C58.9099 78.5931 57.9166 79.3484 57.0553 80.2419ZM84.8053 84.4945C83.8402 85.4588 82.5836 86.0753 81.2309 86.247C79.8782 86.4194 78.5065 86.1371 77.3315 85.4451L85.7543 77.0223C86.4448 78.1979 86.7263 79.5689 86.5546 80.9209C86.383 82.2728 85.7674 83.53 84.8053 84.4945ZM66.7992 91.6286C65.0285 88.007 62.7709 84.6439 60.0906 81.6325C60.5087 81.2824 60.9619 80.9757 61.4426 80.717C62.8883 79.9503 64.9865 79.7603 66.198 80.8803C66.6993 81.3434 67.4454 81.4204 68.0306 81.0703C68.6166 80.7201 68.9011 80.0258 68.7295 79.3658C67.3112 73.8887 65.7037 67.6807 62.1262 62.6057C61.6455 61.9251 61.1343 61.2759 60.6254 60.6457V60.645C63.5155 61.8527 66.5977 62.5348 69.7274 62.6606C72.5495 62.7682 74.6087 62.1815 76.0217 60.8646C77.4309 59.5508 77.9565 57.8236 78.0604 56.0039L80.0387 57.9822C83.5071 61.4566 87.5294 64.3314 91.9407 66.4875L66.7992 91.6286Z" fill="#8C916C"/>
<path d="M54.5334 33.3535L50.0008 37.8869L45.4674 33.3535C44.8258 32.7073 44.7533 31.6888 45.2973 30.9578C45.6406 30.4939 46.1838 30.2216 46.7614 30.2246H46.8148C47.4099 30.2368 47.9615 30.542 48.2888 31.0394L48.7214 31.6879V31.6887C49.0059 32.1159 49.4866 32.3731 50.0008 32.3731C50.515 32.3731 50.9949 32.1159 51.2803 31.6887L51.7128 31.0402L51.7121 31.0394C52.0424 30.5451 52.5917 30.2406 53.1868 30.2246C53.7812 30.2078 54.3473 30.481 54.7043 30.957C55.2475 31.6879 55.1758 32.7072 54.5334 33.3535Z" fill="#8C916C"/>
</svg>
