<svg width="126" height="32" viewBox="0 0 126 32" fill="none" xmlns="http://www.w3.org/2000/svg">
<path d="M63.3941 22.7496C61.2346 21.9773 59.3752 20.4116 58.2079 18.4416C57.6234 17.4552 57.1471 16.3078 57.012 15.1604C56.9353 14.5092 57.0442 13.7205 57.6638 13.3549C58.3407 12.9558 59.0569 13.5216 59.6162 13.8738C59.7759 13.9745 59.9544 13.7434 59.8181 13.6123C59.0697 12.8985 57.9113 12.3655 57.0723 13.2595C56.2912 14.0921 56.4989 15.326 56.7744 16.3242C57.332 18.3422 58.5578 20.1729 60.1744 21.497C61.0947 22.2506 62.1415 22.8269 63.266 23.213C63.5603 23.3142 63.6832 22.8526 63.3941 22.7496Z" fill="#231F20"/>
<path d="M60.0631 13.672C59.9683 12.4714 60.2228 11.1327 60.9893 10.172C61.6686 9.32068 62.751 8.77538 63.8515 8.95793C64.9164 9.13404 65.8291 9.87944 66.3668 10.7933C67.0233 11.9097 67.1292 13.1776 67.1918 14.4414C67.2041 14.6824 67.5493 14.6807 67.5657 14.4414C67.7014 12.417 67.0467 10.1105 65.2265 8.99947C64.4512 8.52613 63.5046 8.32486 62.6164 8.56182C61.7072 8.80405 60.9267 9.43828 60.4293 10.2276C59.7752 11.2655 59.6763 12.4807 59.8226 13.672C59.8413 13.8218 60.0754 13.8288 60.0631 13.672Z" fill="#231F20"/>
<path d="M67.4406 14.7818C67.5816 16.3229 67.2978 17.8669 66.6624 19.2764C66.0218 20.6982 65.0341 21.7806 63.9061 22.8302C63.8441 22.8882 63.9236 22.9888 63.9962 22.9467C65.3278 22.1703 66.3231 20.7596 66.9403 19.3753C67.5798 17.9407 67.8332 16.3445 67.6758 14.7818C67.6612 14.6332 67.4266 14.6308 67.4406 14.7818Z" fill="#231F20"/>
<path d="M63.8052 23.1432C64.2235 23.1432 64.2241 22.4932 63.8052 22.4932C63.3868 22.4932 63.3863 23.1432 63.8052 23.1432Z" fill="#231F20"/>
<path d="M59.7755 14.2493C60.2131 15.7384 60.752 17.1935 61.3798 18.6123C61.691 19.315 62.0263 20.0078 62.3849 20.6877C62.5692 21.0375 62.7617 21.3822 62.9618 21.7233C63.1532 22.0492 63.331 22.4242 63.6054 22.6881C63.7096 22.7881 63.9062 22.6892 63.8576 22.5412C63.7511 22.2165 63.5393 21.9327 63.3667 21.6396C63.1666 21.2991 62.9724 20.955 62.7805 20.6093C62.4084 19.9376 62.0591 19.2536 61.7332 18.5579C61.0691 17.1391 60.5197 15.6688 60.0662 14.1698C60.0107 13.9837 59.7205 14.0621 59.7755 14.2493Z" fill="#231F20"/>
<path d="M67.2171 11.507C67.7179 10.4486 69.1309 10.1052 70.0068 10.9208C70.4649 11.3473 70.5696 11.9663 70.6334 12.5608C70.6943 13.1271 70.7335 13.6982 70.7352 14.2681C70.7393 15.4605 70.5667 16.6821 69.9939 17.7441C69.4416 18.768 68.578 19.5643 67.7109 20.3196C66.6618 21.233 65.5923 22.2317 64.2934 22.7735C64.0559 22.8724 64.1395 23.2106 64.4011 23.1632C65.0628 23.0438 65.6116 22.6641 66.13 22.2534C66.725 21.7824 67.2949 21.2768 67.8583 20.7684C68.877 19.8498 69.9266 18.878 70.5012 17.606C71.0529 16.3843 71.1658 15.0205 71.1009 13.6958C71.0447 12.5508 71.0219 11.0945 69.9272 10.4234C68.8331 9.75294 67.4921 10.2643 67.0345 11.4286C66.9936 11.5345 67.1685 11.6088 67.2171 11.507Z" fill="#231F20"/>
<path d="M68.2955 17.5092C67.8836 18.4231 67.3418 19.2943 66.731 20.0871C66.4226 20.4867 66.0885 20.8664 65.7316 21.2227C65.366 21.5878 64.9494 21.8979 64.5895 22.266C64.5117 22.3455 64.6106 22.4719 64.7077 22.4187C65.1542 22.1735 65.5374 21.7996 65.9007 21.4463C66.2799 21.0765 66.6338 20.681 66.9603 20.2638C67.6016 19.4441 68.0884 18.5471 68.4745 17.5847C68.5137 17.4829 68.3405 17.4091 68.2955 17.5092Z" fill="#231F20"/>
<path d="M59.3131 17.4184C59.8718 18.54 60.5552 19.5885 61.351 20.5568C61.7406 21.0307 62.1508 21.4947 62.5943 21.9183C62.9219 22.2307 63.4274 22.7158 63.9207 22.6385C63.9985 22.6262 64.0213 22.5127 63.9669 22.463C63.7913 22.3027 63.5515 22.2202 63.3531 22.0897C63.1214 21.9382 62.9155 21.7515 62.7183 21.5585C62.297 21.1466 61.9004 20.7077 61.5241 20.2549C60.7629 19.3375 60.0872 18.3469 59.4945 17.3125C59.4266 17.1943 59.2534 17.2984 59.3131 17.4184Z" fill="#231F20"/>
<path d="M62.3687 15.9998C62.5366 17.1594 62.7203 18.3144 62.9637 19.4606C63.0831 20.0211 63.22 20.5775 63.3616 21.1328C63.5073 21.7044 63.6366 22.3 63.8612 22.8459C63.9297 23.0127 64.1643 22.9524 64.1327 22.771C64.0356 22.2093 63.8507 21.6576 63.7033 21.107C63.55 20.5325 63.4078 19.955 63.2621 19.3787C62.9766 18.2489 62.6946 17.1173 62.4529 15.977C62.4412 15.9208 62.3611 15.9454 62.3687 15.9998Z" fill="#231F20"/>
<path d="M64.022 17.43C64.2362 18.3065 64.3263 19.2186 64.2906 20.1202C64.2731 20.5643 64.2222 21.0072 64.1461 21.4455C64.0677 21.8977 63.9226 22.3319 63.8348 22.7806C63.8155 22.8801 63.9559 22.955 64.008 22.8538C64.4152 22.0586 64.5352 21.0517 64.5633 20.1688C64.5937 19.221 64.4609 18.2907 64.1847 17.3844C64.1531 17.2814 63.9957 17.3241 64.022 17.43Z" fill="#231F20"/>
<path d="M65.9226 14.2414C65.9337 15.8685 65.9759 17.471 65.6476 19.0754C65.5066 19.7634 65.2743 20.4339 64.9619 21.0629C64.808 21.3724 64.6343 21.672 64.4394 21.9569C64.2557 22.2249 63.9754 22.4648 63.8754 22.7772C63.845 22.8726 63.9526 22.9305 64.0299 22.8954C64.3031 22.7719 64.4821 22.4595 64.6471 22.2185C64.8537 21.9171 65.0362 21.5983 65.1959 21.2694C65.5142 20.613 65.7366 19.9179 65.9086 19.2105C66.2988 17.6068 66.2877 15.8714 66.0923 14.2414C66.0794 14.1366 65.922 14.1296 65.9226 14.2414Z" fill="#231F20"/>
<path d="M58.0288 21.6412C58.6244 21.4078 59.1715 21.7723 59.5875 22.1754C59.9994 22.575 60.3498 23.0074 60.8284 23.3345C61.2766 23.641 61.8272 23.8242 62.3602 23.9119C62.9558 24.0102 63.6767 24.0898 64.1687 23.6791C64.4595 23.4368 64.2787 22.9659 63.9552 22.8705C63.6544 22.7816 63.3747 22.8541 63.0717 22.8722C62.8183 22.8875 62.5615 22.8828 62.3105 22.8453C61.7652 22.764 61.2041 22.5592 60.7342 22.2714C59.8771 21.7465 58.9883 20.715 57.8866 21.3036C57.707 21.4002 57.8316 21.7184 58.0288 21.6412Z" fill="#231F20"/>
<path d="M63.9312 23.2698C64.1108 23.4599 64.2811 23.6518 64.5093 23.787C64.7509 23.9303 65.0604 23.9736 65.336 23.9935C65.9076 24.0345 66.5307 23.7905 66.9976 23.4775C67.5148 23.1305 67.9613 22.6876 68.4095 22.2588C68.86 21.8281 69.3327 21.4197 69.7815 20.9885C69.9945 20.7843 69.7727 20.4444 69.5024 20.5093C68.4083 20.7715 67.7501 21.8117 66.8753 22.4314C66.4722 22.7169 66.0258 22.9673 65.5343 23.0515C65.3073 23.0902 65.0856 23.1054 64.8556 23.0884C64.6216 23.0709 64.3893 23.0744 64.1851 22.941C63.9809 22.8064 63.772 23.1007 63.9312 23.2698Z" fill="#231F20"/>
<path d="M64.0084 23.5388C65.0675 23.2919 66.0662 22.8536 66.873 22.1123C67.2826 21.7361 67.6418 21.2915 67.8671 20.7818C68.1128 20.226 68.2942 19.6257 68.3843 19.0254C68.4077 18.8715 68.2006 18.751 68.1128 18.9113C67.846 19.3987 67.6448 19.9177 67.3575 20.3963C67.0924 20.838 66.794 21.2575 66.419 21.6127C65.7116 22.2832 64.7989 22.7618 63.8692 23.0356C63.5468 23.1304 63.6808 23.6154 64.0084 23.5388Z" fill="#231F20"/>
<path d="M64.014 22.8265C63.8104 22.6756 63.4897 22.6411 63.2481 22.5662C62.9906 22.486 62.756 22.369 62.5226 22.235C62.0071 21.9378 61.649 21.5183 61.2143 21.1239C60.4209 20.4031 59.1794 19.8262 58.1022 20.2083C57.8448 20.2995 57.9103 20.6266 58.1637 20.6605C58.7195 20.7348 59.2642 20.7975 59.7627 21.0771C60.2723 21.3626 60.6076 21.8149 61.0095 22.2251C61.398 22.6218 61.8439 22.9629 62.357 23.1799C62.818 23.3748 63.5383 23.6381 64.014 23.3754C64.2404 23.2496 64.1953 22.9611 64.014 22.8265Z" fill="#231F20"/>
<path d="M67.0439 23.3695C74.8607 19.5389 83.8243 19.773 92.3098 19.9145C94.6882 19.9543 97.073 19.9701 99.4432 19.7396C101.658 19.5243 103.834 19.0679 105.95 18.381C107.977 17.7234 109.937 16.8744 111.832 15.9038C113.423 15.0893 114.983 14.2316 116.381 13.1135C117.926 11.8784 119.339 10.4642 120.619 8.95819C121.772 7.60137 122.896 6.12519 123.537 4.45008C123.613 4.25232 123.293 4.11951 123.195 4.30615C122.445 5.74664 121.474 7.07362 120.437 8.3181C119.312 9.66907 118.078 10.9375 116.748 12.0884C115.467 13.1977 114.09 14.0648 112.601 14.8699C110.693 15.9032 108.718 16.8218 106.674 17.5561C104.563 18.3149 102.379 18.8702 100.151 19.1463C97.8354 19.4336 95.4974 19.4629 93.167 19.4441C88.8935 19.4096 84.6165 19.3008 80.3518 19.6548C75.7027 20.0415 71.0787 20.9917 66.8854 23.0998C66.7063 23.1905 66.8643 23.4578 67.0439 23.3695Z" fill="#231F20"/>
<path d="M115.089 13.7249C115.836 9.04299 120.431 6.30185 123.498 3.17631C124.341 2.3174 125.143 1.39296 125.719 0.330442C125.847 0.0928957 125.486 -0.118907 125.356 0.118639C124.262 2.1214 122.434 3.67305 120.755 5.17263C119.085 6.66344 117.389 8.17472 116.155 10.0634C115.448 11.1452 114.936 12.3482 114.749 13.6318C114.717 13.8524 115.054 13.9501 115.089 13.7249Z" fill="#231F20"/>
<path d="M125.349 0.0912766C125.052 0.707375 124.922 1.43113 124.744 2.0876C124.422 3.28469 124.112 4.48529 123.766 5.67536C123.4 6.93388 123.004 8.19007 122.512 9.4053C122.117 10.3783 121.66 11.3408 120.855 12.0388C119.259 13.4208 117.207 13.8297 115.155 13.6062C114.945 13.5834 114.91 13.9146 115.106 13.9684C116.808 14.4353 118.768 14.0146 120.261 13.1066C121.347 12.4454 122.072 11.5918 122.613 10.4585C123.751 8.07949 124.375 5.43372 124.982 2.87864C125.114 2.32397 125.243 1.76814 125.382 1.21523C125.459 0.907473 125.531 0.544134 125.654 0.269143C125.746 0.0655321 125.449 -0.11526 125.349 0.0912766Z" fill="#231F20"/>
<path d="M102.001 18.8615C102.073 17.5006 102.498 16.1917 103.006 14.9361C103.471 13.7853 104.024 12.673 104.67 11.6128C105.995 9.44157 107.686 7.62078 109.565 5.92227C110.63 4.95863 111.701 4.00669 112.577 2.86167C112.686 2.71833 112.447 2.53753 112.327 2.66918C110.554 4.61577 108.404 6.17152 106.649 8.13449C104.981 10.0003 103.643 12.1517 102.688 14.4646C102.111 15.8617 101.649 17.3414 101.591 18.8609C101.581 19.1254 101.987 19.1236 102.001 18.8615Z" fill="#231F20"/>
<path d="M112.077 2.86748C111.311 8.03206 108.833 12.8789 104.988 16.4263C104.434 16.9377 103.854 17.4221 103.248 17.8703C102.669 18.298 102.03 18.6485 101.464 19.0908C101.256 19.254 101.522 19.5168 101.725 19.4284C102.323 19.1675 102.877 18.7374 103.403 18.3548C103.942 17.9622 104.465 17.5468 104.967 17.1085C105.968 16.235 106.893 15.2708 107.72 14.2299C109.364 12.1604 110.674 9.80429 111.506 7.29251C111.977 5.87016 112.273 4.40334 112.414 2.91253C112.431 2.72297 112.105 2.67616 112.077 2.86748Z" fill="#231F20"/>
<path d="M102.023 18.4822C102.745 17.714 103.442 16.9534 104.09 16.1155C104.733 15.2841 105.35 14.4322 105.933 13.5581C106.484 12.7325 106.996 11.8812 107.535 11.0481C108.1 10.1728 108.744 9.38233 109.388 8.56671C109.468 8.46608 109.362 8.27826 109.236 8.36954C108.466 8.92771 107.897 9.73221 107.366 10.5104C106.799 11.3406 106.301 12.2165 105.755 13.0614C105.178 13.956 104.575 14.8336 103.94 15.6884C103.275 16.5842 102.604 17.4957 101.903 18.3628C101.837 18.4453 101.947 18.5635 102.023 18.4822Z" fill="#231F20"/>
<path d="M105.131 18.5814C107.53 18.2351 109.988 18.7248 112.04 20.0225C114.024 21.277 115.578 23.1422 117.786 24.045C118.915 24.5066 120.229 24.712 121.377 24.2071C121.582 24.117 121.425 23.8373 121.235 23.8701C120.042 24.0766 118.882 23.9256 117.772 23.4394C116.692 22.9667 115.754 22.247 114.844 21.5092C113.936 20.7732 113.038 20.0096 112.025 19.4205C111.036 18.8459 109.936 18.4521 108.812 18.2468C107.56 18.018 106.294 18.0215 105.047 18.2749C104.843 18.317 104.934 18.6095 105.131 18.5814Z" fill="#231F20"/>
<path d="M105.913 18.6205C106.491 19.8393 107.037 21.0779 107.765 22.2171C108.438 23.2696 109.272 24.2344 110.254 25.0109C111.198 25.7574 112.284 26.3027 113.478 26.4987C114.841 26.7222 116.234 26.5608 117.57 26.2518C118.897 25.9452 120.417 25.4444 121.4 24.4544C121.599 24.2543 121.345 23.9232 121.1 24.0648C120.584 24.3614 120.094 24.6867 119.547 24.9272C119.007 25.1653 118.448 25.3555 117.878 25.5058C116.641 25.8317 115.325 26.0371 114.045 25.93C111.587 25.7235 109.681 24.0531 108.307 22.1258C107.488 20.9761 106.793 19.7375 106.138 18.4889C106.059 18.3385 105.841 18.4707 105.913 18.6205Z" fill="#231F20"/>
<path d="M105.956 18.4084C106.528 18.4119 107.1 18.8923 107.517 19.2457C107.897 19.5675 108.249 19.922 108.582 20.2918C109.237 21.0191 109.821 21.8072 110.493 22.5204C111.73 23.8351 113.485 25.0176 115.368 24.4623C115.61 24.3909 115.506 24.0528 115.266 24.092C113.194 24.4342 111.514 22.975 110.227 21.5533C109.586 20.8447 108.977 20.1034 108.269 19.4575C107.681 18.9204 106.805 18.1463 105.956 18.1884C105.815 18.1954 105.813 18.4078 105.956 18.4084Z" fill="#231F20"/>
<path d="M90.4129 19.2206C91.3514 18.3751 91.871 17.2213 92.332 16.0693C92.813 14.8675 93.3115 13.702 94.0387 12.6243C95.4447 10.542 97.4311 8.85225 99.6919 7.76047C100.964 7.14613 102.342 6.74066 103.727 6.47269C103.897 6.43993 103.861 6.15089 103.685 6.16611C98.6562 6.602 94.2207 10.3741 92.3695 14.9635C91.7973 16.3829 91.3444 17.9229 90.1888 18.9953C90.0379 19.1358 90.2614 19.3569 90.4129 19.2206Z" fill="#231F20"/>
<path d="M90.1295 19.4251C95.5111 18.7803 100.211 15.3739 102.533 10.4767C103.152 9.17023 103.673 7.7315 103.842 6.28867C103.869 6.05756 103.494 6.01427 103.44 6.23426C103.126 7.49513 102.81 8.72147 102.266 9.90862C101.739 11.0601 101.076 12.1548 100.289 13.1471C98.6981 15.1551 96.6129 16.7524 94.269 17.7833C92.9256 18.3743 91.5273 18.8031 90.0757 19.0272C89.8528 19.0629 89.9025 19.4526 90.1295 19.4251Z" fill="#231F20"/>
<path d="M89.9844 19.408C92.2797 17.9622 94.3761 16.2339 96.2337 14.2568C97.1441 13.2879 98.0036 12.2728 98.9 11.291C99.8145 10.2894 100.797 9.39768 101.804 8.49372C101.948 8.36559 101.758 8.11283 101.597 8.22458C100.539 8.95477 99.6325 9.94357 98.7672 10.8856C97.8679 11.8644 97.0096 12.8807 96.1039 13.8543C94.2357 15.8629 92.1217 17.634 89.8194 19.1254C89.6427 19.2395 89.8048 19.5209 89.9844 19.408Z" fill="#231F20"/>
<path d="M91.5515 19.7883C95 22.8004 94.9292 28.3137 98.9055 30.8758C99.4953 31.2555 100.148 31.5545 100.824 31.7417C101.503 31.9301 102.27 32.0793 102.968 31.9266C103.161 31.8844 103.165 31.5714 102.968 31.5316C102.343 31.407 101.711 31.386 101.093 31.2163C100.461 31.0425 99.8539 30.7892 99.2928 30.4498C98.2982 29.8472 97.5124 28.9848 96.8858 28.0135C95.7045 26.181 95.0416 24.0747 93.9533 22.1907C93.3705 21.182 92.6667 20.2587 91.7376 19.5467C91.5995 19.4414 91.4205 19.6742 91.5515 19.7883Z" fill="#231F20"/>
<path d="M92.089 20.0908C94.2567 20.3781 96.3502 21.3446 98.0171 22.7529C99.7308 24.201 100.92 26.0739 101.605 28.2013C101.82 28.8659 102.016 29.5365 102.273 30.1859C102.498 30.7558 102.753 31.4444 103.217 31.8639C103.336 31.9716 103.59 31.868 103.516 31.6896C103.27 31.0928 102.915 30.5574 102.691 29.9443C102.474 29.3463 102.302 28.7325 102.109 28.1264C101.758 27.0229 101.312 25.9639 100.663 25.0003C99.4342 23.176 97.6789 21.6688 95.6627 20.78C94.5253 20.2786 93.327 19.9744 92.089 19.8655C91.9421 19.8527 91.9491 20.0721 92.089 20.0908Z" fill="#231F20"/>
<path d="M92.2729 19.8142C94.4014 21.0341 96.042 22.8771 97.3473 24.9302C97.9734 25.9143 98.4742 26.9622 99.064 27.9657C99.566 28.8205 100.282 29.8444 101.307 30.0767C101.498 30.12 101.611 29.8649 101.441 29.7584C100.942 29.4477 100.485 29.1276 100.108 28.6689C99.7515 28.2342 99.4677 27.7404 99.195 27.2507C98.6328 26.2391 98.0799 25.2292 97.4246 24.2738C96.1198 22.3705 94.488 20.6357 92.4068 19.5843C92.2553 19.5076 92.1231 19.7282 92.2729 19.8142Z" fill="#231F20"/>
<path d="M76.7438 20.1428C77.5834 17.9774 78.9788 16.029 80.7563 14.5341C82.6795 12.9169 85.0216 12.0135 87.3941 11.2734C88.0992 11.0534 88.8089 10.8492 89.5209 10.6526C90.2219 10.459 90.9491 10.3092 91.6179 10.0202C91.7893 9.94585 91.7062 9.6416 91.5213 9.66266C90.8801 9.73521 90.257 9.93239 89.6362 10.1032C88.947 10.2934 88.2589 10.49 87.5755 10.7C86.2696 11.1014 84.9748 11.5502 83.7297 12.1142C81.5731 13.0901 79.7014 14.64 78.2972 16.5415C77.5038 17.6158 76.8895 18.8012 76.4483 20.0614C76.3816 20.2498 76.6736 20.3241 76.7438 20.1428Z" fill="#231F20"/>
<path d="M76.5007 20.1146C81.3119 18.8806 86.1629 16.8603 89.5429 13.0836C89.9753 12.6009 90.3802 12.0924 90.7529 11.5617C91.111 11.0515 91.5369 10.4904 91.7294 9.89249C91.7815 9.73042 91.5428 9.57537 91.4298 9.71813C91.0934 10.1447 90.8559 10.6519 90.5487 11.1019C90.2158 11.5904 89.8519 12.0573 89.4634 12.5031C88.7244 13.3509 87.9012 14.1274 87.0224 14.8289C85.0828 16.3764 82.8501 17.5343 80.546 18.4348C79.1945 18.9631 77.8172 19.43 76.4276 19.8478C76.2573 19.8993 76.3281 20.159 76.5007 20.1146Z" fill="#231F20"/>
<path d="M76.6314 20.0644C78.4095 18.4607 80.2876 16.9646 82.25 15.5932C83.2113 14.9215 84.1936 14.2803 85.1953 13.6706C85.6961 13.3658 86.2023 13.0691 86.7124 12.7807C87.2396 12.4823 87.7949 12.212 88.2764 11.8428C88.3858 11.7591 88.3308 11.5485 88.174 11.5994C87.0694 11.9586 86.032 12.6836 85.0467 13.2868C84.0093 13.9216 82.993 14.5909 81.9996 15.2925C80.0342 16.6809 78.1696 18.2009 76.4073 19.8398C76.2569 19.9796 76.4804 20.2002 76.6314 20.0644Z" fill="#231F20"/>
<path d="M74.1398 20.8675C76.4257 22.0874 77.9855 24.1902 79.6144 26.1362C80.4189 27.0975 81.2614 28.043 82.2485 28.8217C83.0922 29.487 84.033 30.0329 85.0195 30.4576C86.0849 30.9169 87.2282 31.258 88.396 31.0884C88.6482 31.0515 88.5867 30.6367 88.3363 30.646C87.3159 30.6829 86.278 30.3634 85.3436 29.9796C84.3653 29.5777 83.4146 29.0441 82.5756 28.3987C80.6044 26.8822 79.2406 24.7565 77.5017 23.0065C76.5544 22.0534 75.5036 21.1986 74.272 20.6428C74.1216 20.5743 73.9888 20.7867 74.1398 20.8675Z" fill="#231F20"/>
<path d="M74.4285 20.9004C77.0035 20.9993 79.6393 21.3918 81.9645 22.5597C83.9385 23.5508 85.6698 25.0802 86.675 27.069C87.2946 28.2953 87.4701 29.7329 88.2261 30.8913C88.3677 31.1078 88.6672 30.9212 88.5666 30.6924C88.0371 29.4924 87.7668 28.1988 87.2256 27.0052C86.7628 25.9836 86.0917 25.0691 85.2942 24.2828C83.5553 22.5679 81.2922 21.527 78.9226 21.0174C77.4435 20.6991 75.9398 20.5844 74.4291 20.5938C74.2302 20.5944 74.2313 20.8928 74.4285 20.9004Z" fill="#231F20"/>
<path d="M74.6673 20.8457C77.034 21.6081 79.272 22.7618 81.225 24.3047C82.1968 25.0724 83.0785 25.9359 83.9456 26.8183C84.4032 27.284 84.8572 27.755 85.337 28.1979C85.774 28.601 86.2474 29.1147 86.7956 29.3587C86.9331 29.4202 87.0484 29.2721 86.9536 29.1539C86.5581 28.6584 85.9858 28.2646 85.5312 27.8194C85.0643 27.3618 84.6068 26.8961 84.1498 26.4298C83.257 25.5188 82.346 24.6388 81.3297 23.8659C79.3621 22.3693 77.1253 21.2318 74.7498 20.5455C74.5567 20.4888 74.4772 20.7842 74.6673 20.8457Z" fill="#231F20"/>
<path d="M61.5205 23.3907C57.9432 21.5934 53.9699 20.6912 50.0252 20.1523C45.8927 19.5877 41.7158 19.4168 37.5482 19.4057C32.7915 19.3923 27.9721 19.7339 23.2879 18.7083C20.958 18.1981 18.6949 17.4018 16.5213 16.4247C15.4594 15.9473 14.4168 15.4265 13.3929 14.8724C12.5445 14.4132 11.6908 13.9509 10.8998 13.3957C9.39494 12.339 8.03929 11.0553 6.7872 9.71431C5.51288 8.3493 4.36786 6.89184 3.37672 5.30977C3.17194 4.98329 2.97594 4.65154 2.79866 4.30868C2.70329 4.12438 2.38032 4.2531 2.45697 4.45261C3.08301 6.0774 4.15723 7.51321 5.27007 8.83668C6.50519 10.3052 7.86728 11.682 9.34931 12.9025C10.8565 14.1434 12.5427 15.0837 14.2793 15.9666C16.3715 17.0308 18.5446 17.9483 20.7954 18.6205C23.134 19.3191 25.5369 19.7111 27.9721 19.8556C30.4575 20.0031 32.9465 19.9259 35.4337 19.8919C39.5937 19.8352 43.7642 19.9019 47.9066 20.3185C52.0134 20.7309 56.1862 21.4564 60.0144 23.0508C60.4702 23.2404 60.9196 23.4457 61.3631 23.6628C61.5427 23.7482 61.7007 23.4814 61.5205 23.3907Z" fill="#231F20"/>
<path d="M11.2522 13.6306C10.5729 8.95984 6.08762 6.17248 3.00947 3.09141C2.11429 2.19505 1.25538 1.23434 0.644549 0.117403C0.514659 -0.119557 0.153075 0.0916593 0.282379 0.329205C1.33203 2.26643 3.06857 3.78123 4.6916 5.22815C6.37958 6.73358 8.12666 8.22731 9.40566 10.1136C10.1476 11.2078 10.7022 12.413 10.9111 13.7242C10.948 13.9495 11.285 13.8523 11.2522 13.6306Z" fill="#231F20"/>
<path d="M0.335602 0.26952C0.626976 0.920723 0.741068 1.75623 0.908988 2.46243C1.20797 3.72213 1.52275 4.97773 1.87497 6.22338C2.24299 7.52637 2.64904 8.82176 3.19434 10.0627C3.663 11.1288 4.2282 12.0222 5.17077 12.729C6.74115 13.9068 8.96565 14.4948 10.8842 13.9694C11.0772 13.9161 11.0474 13.5844 10.835 13.6072C9.0148 13.8055 7.24432 13.5224 5.70613 12.478C4.69451 11.7911 4.12639 10.8994 3.64369 9.80002C2.61686 7.46143 2.01363 4.94379 1.3519 2.48525C1.14127 1.7024 0.995582 0.826525 0.639848 0.0916539C0.540383 -0.115467 0.244328 0.0653244 0.335602 0.26952Z" fill="#231F20"/>
<path d="M24.4069 18.8612C24.3098 16.3062 23.1571 13.7517 21.8717 11.5816C20.5564 9.36175 18.8579 7.49298 16.9382 5.78277C15.8143 4.78168 14.6856 3.78293 13.6711 2.66893C13.5523 2.53845 13.3113 2.71632 13.4219 2.86142C14.9571 4.86944 17.0746 6.3269 18.7678 8.19099C20.4353 10.0264 21.8003 12.1409 22.7786 14.4198C23.3842 15.8305 23.9154 17.3166 23.9979 18.8612C24.0114 19.1228 24.4174 19.1257 24.4069 18.8612Z" fill="#231F20"/>
<path d="M13.5867 2.91287C14.0863 8.20265 16.7537 13.2063 20.661 16.7771C21.1946 17.2645 21.7522 17.7238 22.3296 18.1573C22.9335 18.6108 23.58 19.1251 24.2751 19.4287C24.4757 19.5165 24.7461 19.2556 24.5354 19.0911C24.0282 18.6945 23.4542 18.3797 22.9311 18.0011C22.4098 17.6237 21.9072 17.2212 21.4233 16.7964C20.4515 15.9434 19.5581 15.0049 18.746 13.9985C17.1001 11.9589 15.8299 9.63612 14.978 7.15944C14.4982 5.76517 14.1396 4.32586 13.9237 2.86723C13.8956 2.67825 13.5685 2.72037 13.5867 2.91287Z" fill="#231F20"/>
<path d="M24.0987 18.3627C23.3971 17.4962 22.7261 16.5841 22.0614 15.6883C21.4266 14.8335 20.8239 13.9558 20.2464 13.0612C19.7011 12.217 19.2032 11.3405 18.6363 10.5103C18.1044 9.73209 17.5357 8.92759 16.7658 8.36942C16.6406 8.27873 16.5335 8.46479 16.6136 8.5666C17.2444 9.36524 17.8792 10.1381 18.4333 10.9947C18.9838 11.846 19.5063 12.7149 20.0692 13.558C20.6478 14.4257 21.2604 15.2705 21.8982 16.0961C22.5499 16.9404 23.2515 17.7074 23.9799 18.4815C24.0548 18.5628 24.1654 18.4458 24.0987 18.3627Z" fill="#231F20"/>
<path d="M20.9629 18.2745C18.7601 17.8269 16.4273 18.1616 14.424 19.1808C12.3025 20.2597 10.7543 22.1823 8.62987 23.2536C7.41347 23.8668 6.12042 24.1026 4.77472 23.8697C4.58691 23.8369 4.42659 24.1154 4.63254 24.2067C6.72014 25.1259 9.05991 23.8217 10.6923 22.5632C11.6524 21.8225 12.5482 20.9981 13.5446 20.3053C14.527 19.6225 15.6094 19.1047 16.7673 18.7993C18.103 18.4471 19.5125 18.3839 20.8787 18.5811C21.0753 18.6086 21.1671 18.316 20.9629 18.2745Z" fill="#231F20"/>
<path d="M19.8582 18.4889C18.76 20.5829 17.5407 22.8566 15.6655 24.362C14.7639 25.0858 13.6949 25.6381 12.5528 25.8499C11.2498 26.0915 9.87955 25.9119 8.59879 25.6235C7.9552 25.4789 7.3233 25.2876 6.71247 25.0384C6.06653 24.7751 5.49724 24.41 4.89518 24.0642C4.6512 23.9238 4.39376 24.2526 4.59445 24.4539C5.4516 25.3157 6.73529 25.7984 7.88498 26.1149C9.21372 26.4806 10.6408 26.7059 12.0192 26.5643C14.5123 26.308 16.4852 24.6797 17.9035 22.7015C18.8057 21.4424 19.4218 20.0125 20.0829 18.62C20.1549 18.4708 19.9366 18.3385 19.8582 18.4889Z" fill="#231F20"/>
<path d="M20.0387 18.1884C19.2061 18.1474 18.3542 18.8911 17.7721 19.4153C17.0448 20.07 16.4235 20.8289 15.7682 21.5532C14.481 22.975 12.8006 24.4336 10.7288 24.0919C10.4895 24.0527 10.3848 24.3909 10.627 24.4623C12.5098 25.0175 14.2651 23.8351 15.5025 22.5204C16.1736 21.8072 16.7581 21.019 17.4128 20.2918C17.7458 19.922 18.0974 19.5674 18.4777 19.2456C18.8943 18.8928 19.4688 18.4119 20.0387 18.4084C20.1809 18.4078 20.1797 18.1954 20.0387 18.1884Z" fill="#231F20"/>
<path d="M35.8057 18.9966C34.7795 18.044 34.3056 16.7147 33.8117 15.4404C33.3501 14.2486 32.8013 13.1123 32.0612 12.0662C30.6066 10.0096 28.6156 8.34971 26.3314 7.2866C25.0524 6.69157 23.7166 6.28961 22.3089 6.16733C22.1345 6.15212 22.0948 6.44057 22.2674 6.47392C24.747 6.95369 27.1002 7.91616 29.0743 9.51228C31.0864 11.1394 32.521 13.1972 33.4724 15.5925C33.9919 16.9002 34.5103 18.2564 35.5805 19.2212C35.732 19.357 35.9561 19.1358 35.8057 18.9966Z" fill="#231F20"/>
<path d="M35.9236 19.0276C30.8006 18.2348 26.2416 14.9975 23.9381 10.3385C23.2863 9.01969 22.913 7.6535 22.5596 6.23408C22.5052 6.01643 22.1302 6.05504 22.1577 6.28849C22.3081 7.57803 22.7504 8.8582 23.2688 10.043C23.7983 11.2536 24.4793 12.3951 25.2867 13.4406C26.9291 15.5662 29.1003 17.2373 31.5665 18.3009C32.9333 18.8901 34.3936 19.2488 35.8692 19.4255C36.0939 19.4512 36.1489 19.0621 35.9236 19.0276Z" fill="#231F20"/>
<path d="M36.1805 19.125C33.8787 17.6336 31.7642 15.8626 29.896 13.854C28.9903 12.8804 28.132 11.8647 27.2327 10.8852C26.3674 9.94324 25.4605 8.95444 24.4032 8.22425C24.2435 8.11367 24.051 8.36409 24.1955 8.49339C25.1866 9.38273 26.1556 10.2586 27.0566 11.2433C27.9682 12.2397 28.8405 13.2724 29.7661 14.2565C31.6238 16.2335 33.7202 17.9613 36.0155 19.4076C36.1939 19.5206 36.3566 19.2391 36.1805 19.125Z" fill="#231F20"/>
<path d="M34.2654 19.5473C30.7338 22.2533 30.7672 27.6133 27.111 30.1889C26.5247 30.6019 25.8794 30.9138 25.1971 31.132C24.4863 31.3596 23.7602 31.3877 23.0352 31.5328C22.8381 31.572 22.8416 31.8856 23.0352 31.9277C24.2276 32.1881 25.65 31.6937 26.6856 31.1221C27.7159 30.5534 28.5608 29.7337 29.2395 28.7794C30.5466 26.941 31.1955 24.7481 32.2217 22.7594C32.7951 21.6477 33.5042 20.6157 34.4509 19.7889C34.5808 19.6754 34.4047 19.4402 34.2654 19.5473Z" fill="#231F20"/>
<path d="M33.9068 19.8655C29.4449 20.2581 25.5178 23.3726 24.0609 27.5992C23.8198 28.2984 23.6262 29.0134 23.3863 29.7132C23.2675 30.0589 23.137 30.4012 22.9791 30.7318C22.8234 31.0577 22.6181 31.3561 22.48 31.6902C22.4063 31.8686 22.6602 31.9722 22.7796 31.8645C23.1874 31.4947 23.422 30.9108 23.6309 30.4123C23.8684 29.8448 24.058 29.2591 24.2417 28.6723C24.5875 27.567 24.9859 26.5127 25.5915 25.521C26.7271 23.6616 28.3987 22.1877 30.3366 21.2071C31.4523 20.6425 32.6664 20.2546 33.9062 20.0908C34.0466 20.0721 34.0536 19.8527 33.9068 19.8655Z" fill="#231F20"/>
<path d="M33.5888 19.5842C31.5077 20.6351 29.8759 22.3704 28.5711 24.2737C27.9158 25.2292 27.3629 26.2396 26.8007 27.2507C26.528 27.741 26.2436 28.2336 25.8873 28.6689C25.5117 29.1282 25.0542 29.4477 24.5551 29.7583C24.386 29.8637 24.496 30.1199 24.6891 30.0766C25.7136 29.8444 26.4297 28.8204 26.9317 27.9656C27.5215 26.9622 28.0223 25.9137 28.6484 24.9302C29.9537 22.8771 31.5943 21.0341 33.7228 19.8142C33.8726 19.7288 33.741 19.5076 33.5888 19.5842Z" fill="#231F20"/>
<path d="M49.561 20.0587C48.7752 17.8137 47.4044 15.8144 45.6081 14.2546C43.6756 12.5765 41.3469 11.6234 38.9329 10.854C38.1875 10.6165 37.4362 10.3977 36.6826 10.187C35.9618 9.98577 35.2334 9.74472 34.4874 9.66046C34.3025 9.6394 34.2188 9.94423 34.3902 10.018C34.963 10.2654 35.5774 10.4018 36.1777 10.5656C36.8254 10.7423 37.4713 10.9248 38.1137 11.1179C39.3846 11.5006 40.6489 11.9224 41.8642 12.4572C44.012 13.4015 45.8978 14.8321 47.3271 16.7002C48.1281 17.7476 48.7881 18.9113 49.2644 20.1406C49.3351 20.3214 49.6271 20.2476 49.561 20.0587Z" fill="#231F20"/>
<path d="M49.566 19.8475C44.8917 18.4416 40.218 16.5143 36.8456 12.8551C36.3915 12.3625 35.9662 11.8429 35.5794 11.2959C35.2196 10.7868 34.9481 10.2053 34.5637 9.71788C34.4508 9.57512 34.2121 9.73017 34.2642 9.89224C34.4344 10.4212 34.7966 10.912 35.1067 11.3672C35.4267 11.8377 35.7725 12.2917 36.14 12.7264C36.9058 13.6327 37.7683 14.4495 38.7003 15.1832C40.6639 16.7284 42.8901 17.8857 45.2153 18.7832C46.6113 19.3221 48.0436 19.7422 49.4923 20.1143C49.6654 20.1582 49.7362 19.899 49.566 19.8475Z" fill="#231F20"/>
<path d="M49.5915 19.8398C47.8293 18.201 45.9646 16.6809 43.9993 15.2925C43.0058 14.5904 41.9895 13.9216 40.9521 13.2868C39.9668 12.6842 38.9289 11.9587 37.8248 11.5994C37.6692 11.5485 37.6119 11.758 37.7224 11.8428C38.204 12.212 38.7592 12.4823 39.2864 12.7807C39.7779 13.0586 40.2652 13.3442 40.7479 13.6373C41.7689 14.2569 42.77 14.9093 43.7488 15.5938C45.7112 16.9653 47.5894 18.4619 49.3674 20.0651C49.5178 20.2002 49.7419 19.9796 49.5915 19.8398Z" fill="#231F20"/>
<path d="M51.7204 20.6414C49.4883 21.6477 47.9202 23.5814 46.3698 25.4034C45.5682 26.3454 44.7479 27.2803 43.803 28.0831C42.9909 28.7729 42.0647 29.3323 41.0993 29.7804C40.045 30.2702 38.8338 30.6879 37.656 30.6452C37.408 30.6364 37.3413 31.0507 37.5964 31.0875C38.6238 31.2373 39.6377 30.9922 40.592 30.6148C41.6083 30.2128 42.5842 29.6862 43.463 29.0356C45.4798 27.5431 46.8624 25.4063 48.5404 23.5767C49.5129 22.516 50.5754 21.5482 51.8526 20.8666C52.0024 20.7859 51.8702 20.5735 51.7204 20.6414Z" fill="#231F20"/>
<path d="M51.5708 20.5925C46.8082 20.5626 41.333 22.0499 38.9698 26.6031C38.2964 27.9002 38.0225 29.3577 37.4334 30.6917C37.3327 30.9199 37.6323 31.1077 37.7739 30.8906C38.4491 29.8562 38.6433 28.5906 39.1342 27.472C39.5795 26.4568 40.2318 25.5312 41.0059 24.7402C42.6769 23.0335 44.888 21.9797 47.1944 21.4414C48.6267 21.1068 50.1029 20.9558 51.5708 20.8997C51.7674 20.892 51.7692 20.5936 51.5708 20.5925Z" fill="#231F20"/>
<path d="M51.2469 20.5442C48.8714 21.2299 46.6346 22.3673 44.667 23.8645C43.6682 24.6246 42.7701 25.487 41.8925 26.3822C41.435 26.8485 40.9774 27.3148 40.5117 27.7729C40.2794 28.0011 40.0448 28.2275 39.8037 28.4464C39.5492 28.6769 39.2578 28.8846 39.0431 29.1537C38.9495 29.2713 39.0624 29.4205 39.2011 29.3585C39.7476 29.1151 40.2238 28.5997 40.6597 28.1977C41.1395 27.7548 41.5935 27.2838 42.051 26.8181C42.9181 25.9363 43.8005 25.0727 44.7717 24.3045C46.7247 22.7616 48.9633 21.6078 51.3294 20.8455C51.5201 20.784 51.4417 20.488 51.2469 20.5442Z" fill="#231F20"/>
</svg>
